<svg width="56" height="160" viewBox="0 0 56 160" fill="none" xmlns="http://www.w3.org/2000/svg">
<path d="M34.9491 26.3873C29.5527 28.0127 22.0691 28.3175 18.76 26.3873V9.54922H34.9491V26.3873Z" fill="#382823"/>
<path d="M20.44 29.9429C19.7527 30.3492 19.8546 32.6603 19.8291 33.473C19.8036 34.3365 20.4909 35.073 21.28 35.3778C22.0691 35.6826 22.96 35.6318 23.8255 35.581C26.2182 35.3778 28.5855 35.0476 30.9273 34.5397C31.9964 34.3111 33.7782 34.0318 34.8473 34.2857C32.8873 32.7111 33.3709 31.2889 31.9455 29.5111C30.1636 27.327 30.0364 24.0508 31.08 21.9175C25.8618 23.0095 21.3564 19.1746 22.1709 23.2889C22.8073 26.4635 23.3418 28.2159 20.44 29.9429Z" fill="#FF7E64"/>
<path d="M0.0254598 92.5207C0.0509144 93.2064 0.0509144 93.8921 0.254551 94.5524C0.534551 95.5683 1.17091 96.4318 1.80728 97.2699C2.39273 98.0318 3.13091 98.8699 4.07273 98.7937C5.21819 96.2286 2.41819 92.8 3.46182 90.2096C3.53819 91.3524 4.17455 92.8254 5.2691 93.1556C5.49819 89.0667 4.7091 86.0191 2.64728 84.2159C0.890914 82.6921 0.814551 85.6381 0.610914 86.3492C0.0509143 88.381 -0.0509038 90.4381 0.0254598 92.5207Z" fill="#FFA18A"/>
<path d="M53.5818 91.327C53.5564 92.0127 53.5564 92.6984 53.3527 93.3588C53.0727 94.3746 52.4364 95.2381 51.8 96.0762C51.2146 96.8381 50.4764 97.6762 49.5345 97.6C48.3891 95.0349 51.1891 91.6064 50.1455 89.0159C50.0691 90.1588 49.4327 91.6318 48.3382 91.9619C48.1091 87.873 48.8982 84.8254 50.96 83.0222C52.7164 81.4984 52.7927 84.4445 52.9964 85.1556C53.5564 87.1873 53.6327 89.2445 53.5818 91.327Z" fill="#FFA18A"/>
<path d="M26.5745 27.1238C30.553 27.1238 33.7782 21.9389 33.7782 15.5429C33.7782 9.14688 30.553 3.96191 26.5745 3.96191C22.5961 3.96191 19.3709 9.14688 19.3709 15.5429C19.3709 21.9389 22.5961 27.1238 26.5745 27.1238Z" fill="#FFA18A"/>
<path d="M20.7964 27.3524C20.7709 27.7079 20.5164 28.0127 20.1855 28.1143C18.1236 28.7492 11.4546 29.6381 11.3527 24.4064C11.2764 19.581 15.3491 -0.990471 27.5927 0.0507987C36.8582 0.8381 43.2727 18.946 42.5346 24.7111C42.1018 28.0127 36.0946 28.6984 32.9891 27.5302C32.6327 27.4032 32.4036 27.0222 32.4546 26.6413C33.0655 20.4952 34.7455 11.454 31.7164 10.3619C27.9746 8.99048 22.0946 9.49842 20.7709 11.327C18.1746 14.9587 21.1273 22.2222 20.7964 27.3524Z" fill="#4D3932"/>
<path d="M25.3273 12.3175C26.88 12.1905 28.1018 11.9111 32.4036 11.0222C33.2945 10.8444 34.2364 10.6159 34.8473 9.95556C35.84 8.88889 35.5346 7.11111 34.72 5.91746C33.9055 4.72381 32.6836 3.86032 31.7418 2.76826C31.3091 2.26032 30.9273 1.70159 30.4182 1.26984C28.5855 -0.22857 24.1818 0.203176 22.2473 1.32064C20.5927 2.28572 19.5491 3.9873 18.8364 5.73968C18.0727 7.64445 16.6473 9.93016 18.1745 11.2508C19.6255 12.546 23.5455 12.4698 25.3273 12.3175Z" fill="#382823"/>
<path d="M25.6073 11.8603C27.0836 11.7333 28.2546 11.454 32.3273 10.6159C33.1673 10.4381 34.0582 10.2349 34.6436 9.62541C35.5855 8.60954 35.3055 6.93335 34.5164 5.81589C33.7273 4.67303 32.5818 3.86033 31.6655 2.81906C31.2582 2.33652 30.9018 1.80319 30.3927 1.39684C28.6873 1.63615e-05 24.5127 0.380969 22.68 1.44764C21.1273 2.33652 20.1346 3.96192 19.4727 5.61271C18.7346 7.41589 17.3855 9.57462 18.8364 10.8445C20.2109 12.0635 23.9273 12.0127 25.6073 11.8603Z" fill="#4D3932"/>
<path d="M17.7927 6.06984C17.1309 6.80635 16.6982 7.66984 16.4946 8.53333C16.4182 8.99047 16.3418 9.47301 16.2655 9.98095C16.1636 10.4889 15.9855 11.0476 15.7055 11.4794C15.4 11.9365 15.12 12.2921 14.8909 12.6984C14.6618 13.0794 14.5091 13.5111 14.3309 13.9682C14.1527 14.4 14.0255 14.8825 13.9236 15.3397C13.7709 15.8222 13.6946 16.3048 13.5418 16.7873C13.5927 15.7968 13.6946 14.8317 13.9491 13.8667C14.0764 13.3841 14.2546 12.927 14.4836 12.4698C14.7127 12.0381 15.0182 11.6317 15.2727 11.2254C15.8327 10.4127 15.8582 9.37142 16.1382 8.43174C16.4182 7.49206 17.0036 6.62857 17.7927 6.01904V6.06984Z" fill="#382823"/>
<path d="M17.8691 11.7079C18.0218 12.1651 17.9455 12.6984 17.8182 13.1809C17.6909 13.6381 17.4873 14.0952 17.3345 14.527C17.1818 14.9333 17.0545 15.3397 17.08 15.746C17.08 16.1524 17.1309 16.5841 17.2327 17.0412C17.3091 17.4984 17.4109 17.9809 17.4364 18.4635C17.4618 18.946 17.4873 19.4286 17.4364 19.9111C17.4109 20.3936 17.36 20.8762 17.2836 21.3587C17.2073 21.8159 17.1309 22.2984 17.0036 22.7555C17.0036 21.8159 17.08 20.8762 17.0545 19.9365C17.0545 18.9968 16.9273 18.0571 16.7236 17.1428C16.6473 16.6603 16.5709 16.2032 16.5964 15.7206C16.6218 15.2381 16.7745 14.7809 16.9782 14.3492C17.1818 13.9174 17.4109 13.5111 17.5891 13.0793C17.7673 12.6476 17.8691 12.1905 17.8182 11.7079H17.8691Z" fill="#382823"/>
<path d="M13.9236 19.5555C13.9236 20.3175 13.8727 21.054 14.0764 21.6635C14.1782 21.9682 14.3309 22.1968 14.56 22.527C14.7636 22.8571 14.9164 23.2889 14.9927 23.6952C15.12 24.5079 15.0182 25.2698 14.9418 26.0063C14.8909 26.3619 14.8655 26.7175 14.8909 27.073C14.8909 27.4286 14.9418 27.7841 15.0691 28.1397C14.6109 27.5302 14.5346 26.7428 14.56 26.0063C14.56 25.2698 14.6364 24.5079 14.5091 23.7968C14.4582 23.4413 14.3309 23.0857 14.1527 22.7809C13.9491 22.4508 13.7455 22.1206 13.6691 21.7397C13.5164 21.0032 13.6946 20.2413 13.8727 19.5302L13.9236 19.5555Z" fill="#382823"/>
<path d="M33.3709 3.86032C33.7018 3.98731 34.0073 4.16508 34.2873 4.36826C34.5673 4.59683 34.8218 4.8508 35.0255 5.15556C35.2291 5.43492 35.4073 5.76508 35.56 6.06985C35.7382 6.4 35.84 6.75556 35.9164 7.08572C36.0946 7.77143 36.2218 8.35556 36.4509 8.93969C36.5527 9.24445 36.7055 9.52381 36.8582 9.80318C36.9855 10.1079 37.1891 10.3873 37.3673 10.6921C36.8327 10.2603 36.4255 9.72699 36.0946 9.11746C35.7636 8.50794 35.6109 7.84762 35.4327 7.18731C35.28 6.52699 35.0255 5.91746 34.6691 5.33334C34.3382 4.74921 33.8546 4.26667 33.32 3.86032H33.3709Z" fill="#382823"/>
<path d="M35.1273 13.4095C35.3564 13.7397 35.5346 14.0698 35.7127 14.4254C35.8909 14.8063 35.9673 15.2381 35.9164 15.6698C35.8655 16.5333 35.5091 17.2698 35.2546 17.9555C34.9746 18.6413 34.7709 19.327 34.6691 20.0381C34.6182 20.3936 34.6182 20.7492 34.6691 21.1048C34.6946 21.4603 34.7964 21.8159 34.9236 22.1968C34.4146 21.5873 34.2618 20.8 34.2618 20.0381C34.2873 19.2762 34.4909 18.5143 34.7709 17.8032C35.0509 17.0921 35.4073 16.4063 35.5091 15.6444C35.56 15.2635 35.5346 14.8825 35.4327 14.527C35.3309 14.1714 35.1782 13.8159 35.0509 13.4603L35.1273 13.4095Z" fill="#382823"/>
<path d="M38.2836 12.9016C38.36 12.7746 38.5127 12.8 38.6146 12.8508C38.7164 12.9016 38.8182 12.9524 38.8946 13.0286C39.0727 13.1809 39.2255 13.3587 39.3273 13.5619C39.5309 13.9683 39.5564 14.4508 39.5564 14.8825C39.5564 15.3143 39.5055 15.6698 39.5309 16.0508C39.5309 16.4317 39.5564 16.8127 39.6073 17.1936C39.6836 17.9556 39.8618 18.7175 40.04 19.4794C40.1164 19.8603 40.2182 20.2667 40.32 20.6476C40.3964 21.054 40.4982 21.4349 40.5491 21.8413C39.9127 20.3683 39.3018 18.8444 39.0982 17.2444C38.9964 16.4317 39.0473 15.619 39.1746 14.8317C39.2255 14.4254 39.2255 14.019 39.0982 13.6635C39.0218 13.4857 38.9455 13.3079 38.7927 13.1556C38.7164 13.0794 38.64 13.0286 38.5636 12.9778C38.4873 12.927 38.36 12.9016 38.3346 12.9778L38.2836 12.9016Z" fill="#382823"/>
<path d="M36.9345 21.3587C37.2909 21.6381 37.5455 22.0191 37.7236 22.4254C37.9018 22.8318 38.0036 23.2889 38.0291 23.7206C38.0545 24.1778 37.9782 24.6095 37.9018 25.0159C37.8255 25.4222 37.7236 25.7778 37.6982 26.2095C37.4945 25.8286 37.4691 25.3968 37.4945 24.9905C37.52 24.5841 37.5455 24.1524 37.52 23.746C37.4945 22.9333 37.2655 22.1206 36.8836 21.3841L36.9345 21.3587Z" fill="#382823"/>
<path d="M26.5745 10.5651C26.3709 10.5143 26.2182 10.3619 26.1164 10.2095C26.0145 10.0571 25.9127 9.87935 25.8618 9.72696C25.7345 9.39681 25.6582 9.04125 25.6327 8.71109C25.6073 8.35554 25.6327 8.02538 25.6836 7.69522C25.76 7.36506 25.8618 7.0095 26.0655 6.70474C26.0655 7.36506 26.0655 8.02538 26.1164 8.68569C26.1418 9.01585 26.1673 9.34601 26.2182 9.67617C26.2945 9.98093 26.3455 10.3365 26.5745 10.5651Z" fill="#382823"/>
<path d="M28.6873 3.53015C29.1455 3.68253 29.5527 3.98729 29.8836 4.31745C30.2145 4.67301 30.4691 5.07936 30.6727 5.5111C30.8509 5.94285 31.0036 6.39999 31.0545 6.88253C31.1055 7.33968 31.08 7.84761 30.9018 8.30475C30.8 7.36507 30.5455 6.50158 30.1891 5.71428C29.8327 4.90158 29.3491 4.13968 28.6618 3.58094L28.6873 3.53015Z" fill="#382823"/>
<path d="M21.6873 5.61268C21.4582 6.04443 21.28 6.42538 21.1273 6.83173C21 7.23808 20.8727 7.64443 20.8218 8.05078C20.7455 8.45713 20.6945 8.88887 20.6691 9.32062C20.6436 9.75237 20.6436 10.1841 20.6691 10.6667C20.2364 9.82856 20.16 8.86348 20.3127 7.94919C20.4909 7.03491 20.9236 6.14602 21.6364 5.56189L21.6873 5.61268Z" fill="#382823"/>
<path d="M42.4836 150.705C42.3309 150.298 42.0764 148.724 41.8727 147.225C41.6436 145.549 40.4218 144.33 39.1491 144.508C37.9273 144.686 37.1127 146.108 37.2909 147.708C37.4182 148.876 37.52 149.917 37.6218 150.857L42.4836 150.705Z" fill="#FF9C85"/>
<path d="M9.62183 151.137C9.77455 150.806 9.97819 149.435 10.1564 148.14C10.36 146.692 11.5564 145.676 12.8036 145.879C14.0255 146.057 14.8655 147.302 14.7382 148.673C14.6364 149.664 14.5346 150.578 14.4836 151.365L9.62183 151.137Z" fill="#FF9C85"/>
<path d="M9.64727 148.19C12.9309 148.571 11.6582 148.47 14.9927 148.368C15.2473 148.368 15.4509 148.19 15.5018 147.962C18.6073 134.578 27.5164 81.727 27.6182 80.1778C27.8727 76.5714 27.8727 72.8889 27.1091 69.3333C25.4291 61.7143 14.3818 66.7429 13.7709 69.6635C13.3382 71.6699 13.2618 72.8889 12.88 74.7429C12.1927 77.9683 10.8945 81.1175 10.64 84.4191C9.41817 100.546 9.03636 138.159 9.18908 147.733C9.18908 147.987 9.41817 148.165 9.64727 148.19Z" fill="#E35F4B"/>
<path d="M42.6618 148.089C39.3782 148.47 40.3709 148.19 37.1636 148.571C36.8836 148.597 36.6291 148.419 36.5782 148.165C33.4473 134.629 24.4873 79.8222 24.3855 78.2984C24.1309 74.6921 23.9018 70.9587 24.8945 67.454C27.16 59.6317 38.3855 66.2857 39.2255 69.7143C39.5309 70.9333 41.3636 82.2603 41.3636 82.5397C42.6873 100.902 43.4509 137.371 43.12 147.632C43.12 147.886 42.9164 148.063 42.6618 148.089Z" fill="#E35F4B"/>
<path d="M13.6436 59.7333C12.88 68.9016 8.17091 77.4857 5.16727 86.1714C5.09091 86.4 4.88727 86.527 4.63273 86.5016C2.54545 86.273 2.57091 86.2222 0.610909 85.4095C0.381818 85.3333 0.254545 85.1048 0.305454 84.8508C1.01818 80.4825 7.43273 41.1429 10.4618 34.7682C12.3964 40.0254 14.4073 50.3873 13.6436 59.7333Z" fill="#F5DED3"/>
<path d="M40.7782 58.9714C41.9236 68.1143 46.0473 75.1746 49.3818 83.6826C49.4582 83.9111 49.6873 84.0381 49.9418 84.0127C51.9527 83.7334 51.5455 83.9365 53.6327 83.3524C53.8873 83.2762 54.04 83.0222 53.9891 82.7683C53.1491 78.1968 46.1746 40.127 42.9164 33.9048C41.2109 39.2381 39.6073 49.6508 40.7782 58.9714Z" fill="#F5DED3"/>
<path d="M10.4109 34.7936C11.0473 33.9809 20.3891 29.9936 20.3891 29.9936C20.3891 29.9936 24.0291 32.3556 26.7527 32.1778C29.5527 31.9746 32.0473 29.4349 32.2509 29.5365C36.6546 31.4159 38.5382 32.0254 42.9418 33.9048C40.6255 46.3238 41.6691 56.4063 38.0291 67.7841C29.4509 68.7492 23.8509 68.1651 15.1709 67.8603C13.5164 60.8508 10.6146 38.8317 10.4109 34.7936Z" fill="#F5EBE3"/>
<path d="M38.0291 67.7841C30.4691 68.9778 19.4218 68.6222 15.1709 67.8603L14.8655 66.0825C22.7818 65.8286 34.1855 65.7016 38.4873 66.3111L38.0291 67.7841Z" fill="#E35F4B"/>
<path d="M15.2218 67.8095L15.9345 67.9365L16.6473 67.9873C17.1309 68.0381 17.6145 68.0127 18.0727 68.0381C19.04 68.0635 19.9818 68.0635 20.9491 68.0635C22.8582 68.0381 24.7673 68.0381 26.6764 67.9873L32.4291 67.9111L35.3055 67.8857C36.2727 67.8857 37.2145 67.8857 38.1818 67.9111C37.24 68.0127 36.2727 68.0635 35.3055 68.1397L32.4291 68.2921C30.52 68.3937 28.6109 68.4445 26.6764 68.4953C24.7673 68.4953 22.8327 68.5207 20.9236 68.4445C19.9564 68.4191 19.0145 68.3683 18.0473 68.2921C17.5636 68.2413 17.08 68.2159 16.6218 68.1143L15.9091 67.9873L15.2218 67.8095Z" fill="white"/>
<path d="M27.8727 66.5143C27.72 67.2254 27.6182 67.9619 27.5418 68.6984C27.44 69.4349 27.3382 70.146 27.2364 70.8825L26.7018 75.2508C26.5236 76.6984 26.3709 78.1714 26.2182 79.619C26.1418 80.3556 26.0909 81.0921 26.0655 81.8032C26.04 82.1587 26.04 82.5397 26.0655 82.8952C26.0909 83.2508 26.0909 83.6317 26.2436 83.9619C26.0655 83.6317 25.9891 83.2508 25.9382 82.8952C25.8873 82.5397 25.8618 82.1587 25.8364 81.7778C25.8109 81.0413 25.8109 80.3048 25.8364 79.5682C25.8873 78.0952 26.04 76.6222 26.1927 75.1492C26.3709 73.6762 26.5746 72.2286 26.8546 70.7809C27.1346 69.3841 27.4145 67.9111 27.8727 66.5143Z" fill="white"/>
<path d="M27.1855 67.073C27.1091 67.4032 26.7782 67.6064 26.4473 67.5048C26.1164 67.4286 25.9127 67.0984 26.0146 66.7683C26.0909 66.4381 26.4218 66.2349 26.7527 66.3365C27.0582 66.4127 27.2618 66.7429 27.1855 67.073Z" fill="white"/>
<path d="M21.3055 65.8286C21.4836 65.8032 21.6873 65.8032 21.9164 65.8032C21.9927 66.3365 21.9927 66.7683 21.9164 67.2254C21.8909 67.454 21.84 67.6572 21.84 67.8857C21.84 68.1143 21.8145 68.3175 21.84 68.546C21.56 68.6222 21.3818 68.6222 21.1782 68.6222C21.0764 68.0381 21.1018 67.581 21.1527 67.1238C21.1782 66.6667 21.2291 66.2349 21.3055 65.8286ZM21.3309 65.854C21.3564 66.3365 21.3564 66.7937 21.3564 67.2254C21.3564 67.6572 21.3055 68.0635 21.28 68.4953L21.1782 68.3683C21.3818 68.3937 21.56 68.4191 21.7636 68.4445C21.7127 68.2921 21.7382 68.0635 21.7636 67.8603C21.7891 67.6318 21.7636 67.4286 21.7636 67.2C21.7382 66.7429 21.7891 66.3111 21.84 65.8794C21.7382 65.9302 21.56 65.9048 21.3309 65.854Z" fill="white"/>
<path d="M31.4364 65.7524C31.6146 65.727 31.8182 65.727 32.0473 65.727C32.1236 66.2603 32.1236 66.6921 32.0218 67.1492C31.9964 67.3778 31.9455 67.581 31.9455 67.8095C31.9455 68.0381 31.92 68.2413 31.92 68.4698C31.64 68.546 31.4618 68.546 31.2582 68.546C31.1564 67.9619 31.1818 67.5048 31.2327 67.0476C31.3091 66.5905 31.36 66.1333 31.4364 65.7524ZM31.4618 65.7778C31.4873 66.2603 31.4873 66.7175 31.4873 67.1492C31.4873 67.581 31.4364 67.9873 31.3855 68.4191L31.2836 68.2921C31.4873 68.3175 31.6655 68.3429 31.8691 68.3683C31.8182 68.2159 31.8436 67.9873 31.8691 67.7587C31.8946 67.5302 31.8691 67.327 31.8691 67.0984C31.8436 66.6413 31.8946 66.2095 31.9455 65.7778C31.8691 65.854 31.6909 65.8032 31.4618 65.7778Z" fill="white"/>
<path d="M25.0218 83.0984C25.6582 83.3524 26.1673 83.9111 26.4727 84.5461L26.0145 84.5715C26.0909 84.3175 26.1673 84.0889 26.32 83.8857C26.4727 83.6826 26.6509 83.4794 26.88 83.3524C27.1091 83.2254 27.3382 83.1238 27.6182 83.0984C27.7455 83.0984 27.8982 83.1238 28 83.2C28.1273 83.2762 28.1782 83.4032 28.2036 83.5302C28.0509 83.327 27.8473 83.327 27.6436 83.4032C27.4655 83.454 27.2873 83.581 27.1345 83.708C26.8291 83.9873 26.6255 84.3429 26.4727 84.7238L26.2436 85.3842L25.9891 84.7492C25.7855 84.1397 25.4291 83.6318 25.0218 83.0984Z" fill="white"/>
<path d="M12.2436 77.6889C12.6255 77.3079 13.0836 77.0794 13.4909 76.7746C13.8982 76.4952 14.3055 76.2159 14.6618 75.8857C15.4 75.2508 16.0364 74.5397 16.5455 73.7016C16.6982 73.4984 16.8 73.2952 16.9273 73.0921C17.0545 72.8889 17.1564 72.6603 17.2582 72.4318L17.5636 71.7714C17.64 71.5429 17.7418 71.3143 17.8436 71.0857C18.2 70.1714 18.4545 69.181 18.7855 68.2159C18.76 68.7238 18.6836 69.2318 18.5818 69.7143C18.4545 70.1968 18.3782 70.7048 18.2 71.1873C17.92 72.1778 17.4873 73.0921 16.9527 73.9556C16.3927 74.8191 15.7055 75.581 14.8655 76.1905C14.4582 76.4952 14.0255 76.7492 13.5673 77.0032C13.1091 77.2571 12.6509 77.4349 12.2182 77.7143L12.2436 77.6889Z" fill="white"/>
<path d="M40.2436 75.8603C39.4546 75.5048 38.7673 74.9715 38.1564 74.3873C37.5455 73.8032 36.9855 73.1429 36.4764 72.4826C35.9673 71.8222 35.4836 71.1365 35.0509 70.4L34.4146 69.308C34.2364 68.927 34.0073 68.5714 33.8546 68.1651C34.8982 69.4857 35.8909 70.8318 36.9091 72.1524C37.4182 72.8127 37.9527 73.473 38.4873 74.0826C39.0473 74.7175 39.6327 75.3016 40.32 75.7841L40.2436 75.8603Z" fill="white"/>
<path d="M15.96 154.971C16.0364 156.775 15.9345 157.689 14.1273 157.765C14.1273 157.765 7.3309 157.816 3.9709 157.867C2.46909 157.892 1.65454 156.089 2.67272 154.971C3.89454 153.676 6.13454 152.483 8.01818 151.213C8.90909 150.603 9.97818 150.349 11.0473 150.552C12.2945 150.781 13.8982 150.578 14.6364 150.095C15.0945 149.816 15.8582 153.321 15.8836 153.575C15.9091 154.083 15.9345 154.54 15.96 154.971Z" fill="black"/>
<path d="M36.0945 154.743C36.0182 156.546 36.12 157.486 37.9273 157.537C37.9273 157.537 44.7236 157.587 48.0836 157.638C49.5855 157.663 50.4 155.86 49.3818 154.743C48.16 153.448 45.92 152.254 44.0364 151.01C43.1455 150.4 42.0764 150.146 41.0073 150.349C39.76 150.578 38.1564 150.375 37.4182 149.892C36.96 149.613 36.1964 153.117 36.1709 153.371C36.1455 153.829 36.0945 154.286 36.0945 154.743Z" fill="black"/>
</svg>
