<svg width="1080" height="1080" viewBox="0 0 1080 1080" fill="none" xmlns="http://www.w3.org/2000/svg">
<rect width="1080" height="1080" rx="540" fill="black"/>
<mask id="path-2-inside-1_2_2" fill="white">
<path d="M757 416.5C757 459.517 744.244 501.569 720.345 537.337C696.445 573.104 662.477 600.982 622.734 617.444C582.991 633.906 539.259 638.213 497.068 629.821C454.877 621.429 416.122 600.714 385.704 570.296C355.286 539.878 334.571 501.123 326.179 458.932C317.787 416.741 322.094 373.009 338.556 333.266C355.018 293.523 382.896 259.555 418.663 235.655C454.431 211.756 496.483 199 539.5 199L539.5 296.712C515.808 296.712 492.648 303.738 472.949 316.9C453.25 330.063 437.897 348.771 428.83 370.659C419.764 392.548 417.392 416.633 422.014 439.869C426.636 463.106 438.045 484.45 454.797 501.203C471.55 517.955 492.894 529.364 516.131 533.986C539.367 538.608 563.452 536.236 585.341 527.17C607.229 518.103 625.937 502.75 639.1 483.051C652.262 463.352 659.288 440.192 659.288 416.5H757Z"/>
</mask>
<path d="M757 416.5C757 459.517 744.244 501.569 720.345 537.337C696.445 573.104 662.477 600.982 622.734 617.444C582.991 633.906 539.259 638.213 497.068 629.821C454.877 621.429 416.122 600.714 385.704 570.296C355.286 539.878 334.571 501.123 326.179 458.932C317.787 416.741 322.094 373.009 338.556 333.266C355.018 293.523 382.896 259.555 418.663 235.655C454.431 211.756 496.483 199 539.5 199L539.5 296.712C515.808 296.712 492.648 303.738 472.949 316.9C453.25 330.063 437.897 348.771 428.83 370.659C419.764 392.548 417.392 416.633 422.014 439.869C426.636 463.106 438.045 484.45 454.797 501.203C471.55 517.955 492.894 529.364 516.131 533.986C539.367 538.608 563.452 536.236 585.341 527.17C607.229 518.103 625.937 502.75 639.1 483.051C652.262 463.352 659.288 440.192 659.288 416.5H757Z" stroke="white" stroke-width="100" mask="url(#path-2-inside-1_2_2)"/>
<mask id="path-3-inside-2_2_2" fill="white">
<path d="M757 662.923C757 691.485 751.374 719.768 740.444 746.157C729.513 772.545 713.492 796.522 693.296 816.719C673.099 836.915 649.122 852.936 622.734 863.867C596.345 874.797 568.062 880.423 539.5 880.423C510.937 880.423 482.655 874.797 456.266 863.867C429.878 852.936 405.901 836.915 385.704 816.719C365.508 796.522 349.487 772.545 338.556 746.156C327.626 719.768 322 691.485 322 662.923L419.712 662.923C419.712 678.654 422.811 694.23 428.83 708.764C434.85 723.297 443.674 736.502 454.797 747.626C465.921 758.749 479.126 767.572 493.659 773.592C508.193 779.612 523.769 782.711 539.5 782.711C555.231 782.711 570.807 779.612 585.341 773.592C599.874 767.573 613.079 758.749 624.203 747.626C635.326 736.502 644.15 723.297 650.17 708.764C656.189 694.23 659.288 678.654 659.288 662.923H757Z"/>
</mask>
<path d="M757 662.923C757 691.485 751.374 719.768 740.444 746.157C729.513 772.545 713.492 796.522 693.296 816.719C673.099 836.915 649.122 852.936 622.734 863.867C596.345 874.797 568.062 880.423 539.5 880.423C510.937 880.423 482.655 874.797 456.266 863.867C429.878 852.936 405.901 836.915 385.704 816.719C365.508 796.522 349.487 772.545 338.556 746.156C327.626 719.768 322 691.485 322 662.923L419.712 662.923C419.712 678.654 422.811 694.23 428.83 708.764C434.85 723.297 443.674 736.502 454.797 747.626C465.921 758.749 479.126 767.572 493.659 773.592C508.193 779.612 523.769 782.711 539.5 782.711C555.231 782.711 570.807 779.612 585.341 773.592C599.874 767.573 613.079 758.749 624.203 747.626C635.326 736.502 644.15 723.297 650.17 708.764C656.189 694.23 659.288 678.654 659.288 662.923H757Z" stroke="white" stroke-width="100" mask="url(#path-3-inside-2_2_2)"/>
<path d="M695.741 296.759V260.259H659.241H637.316V235.5H720.5V319.262H695.741V296.759Z" stroke="#FF6C01" stroke-width="73"/>
</svg>
