<svg width="592" height="493" viewBox="0 0 592 493" fill="none" xmlns="http://www.w3.org/2000/svg">
<path fill-rule="evenodd" clip-rule="evenodd" d="M170 425.577C64.5994 382.965 65.249 436.458 18.2706 357.577C-28.7078 278.697 14.7165 162.479 152.576 126.577C290.435 90.6752 482 -78.7393 584.265 202.977C613.002 282.142 557.625 493 358.669 492.579C216.245 492.275 241.235 453.577 170 425.577Z" fill="#FA8050"/>
<path fill-rule="evenodd" clip-rule="evenodd" d="M343.759 262.577C343.262 262.186 343.39 260.989 343.538 260.183C344.475 255.071 348.994 251.648 352.98 248.455C356.965 245.261 361.089 240.971 360.675 235.787C360.116 228.781 363.344 222.138 365.315 215.409C367.286 208.68 367.635 200.39 362.612 195.634C360.872 193.986 358.653 192.953 356.9 191.32C355.146 189.686 353.886 187.035 354.883 184.827C354.034 185.336 353.184 185.845 352.335 186.354C352.098 182.938 348.217 181.418 345.298 179.782C340.29 176.975 336.628 171.306 337.03 165.447C337.432 159.588 342.542 154.192 348.233 154.522C350.677 154.664 353.815 155.437 355.029 153.248C359.513 145.158 371.143 144.226 376.424 136.665C377.575 135.018 383.127 130.098 382.579 133.577C381.361 141.313 388.137 139.068 390.809 142.306C402.459 156.42 403.357 177.808 401.255 198.077C396.759 241.45 369.951 283.183 343.759 262.577Z" fill="white"/>
<path fill-rule="evenodd" clip-rule="evenodd" d="M375.382 146.22C378.095 143.302 382.049 141.577 386.033 141.577C392.617 144.99 399.129 149.607 405.569 155.428C409.607 153.83 412.453 153.505 414.106 154.454C416.585 155.877 418.104 158.577 418.823 161.344C421.128 170.218 416.225 179.399 410.193 186.302C407.562 189.312 404.63 192.188 403.019 195.848C401.408 199.507 401.48 204.28 404.412 206.998C411.743 213.792 414.189 224.511 413.78 234.499C413.371 244.487 410.523 254.195 408.929 264.064C407.159 275.016 406.938 286.218 408.274 297.232C408.687 300.633 409.281 304.114 411.057 307.044C412.833 309.974 416.048 312.263 419.464 312.011C418.254 313.742 415.338 313.862 413.989 312.236C415.317 313.617 416.645 314.997 417.973 316.378C416.366 316.041 414.76 315.704 413.154 315.368C426.582 323.002 440.487 329.796 454.762 335.695C453.928 332.89 450.987 331.364 448.326 330.147C440.895 326.749 433.464 323.35 426.033 319.952C437.196 320.964 447.976 325.813 456.141 333.495C465.977 342.749 481.897 342.231 492.563 350.514C494.85 352.291 496.908 354.558 497.676 357.351C498.754 361.274 497.028 365.565 494.186 368.476C491.344 371.388 487.54 373.146 483.735 374.588C472.368 378.894 460.145 380.926 447.997 380.528C446.966 378.716 447.996 376.303 449.674 375.065C451.351 373.828 453.488 373.449 455.525 373.011C464.194 371.146 472.495 367.585 479.819 362.587C481.465 361.464 483.251 359.448 482.195 357.759C481.803 357.131 481.106 356.774 480.438 356.455C468.936 350.964 456.086 348.324 443.351 348.835C447.11 348.156 450.87 347.476 454.629 346.797C444.693 340.869 434.248 335.796 423.446 331.652C420.088 330.363 416 329.255 413.145 331.444C406.178 336.787 399.21 342.13 392.243 347.473C401.227 347.631 410.168 349.841 418.192 353.886C416.356 357.899 412.23 360.762 407.829 361.076C409.911 358.94 411.994 356.805 414.076 354.669C399.245 345.475 378.093 355.084 363.241 345.924C356.616 341.838 352.225 334.475 345.043 331.475C338.193 328.613 330.389 330.358 323.181 332.14C318.454 333.309 313.488 334.607 310 338.005C310.097 334.586 313.346 332.112 316.541 330.894C319.736 329.676 323.283 329.113 325.972 327.001C328.701 324.858 330.095 321.472 332.246 318.751C334.398 316.03 338.211 313.884 341.251 315.555C340.314 308.329 346.453 302.436 350.614 296.456C355.354 289.645 357.887 281.323 357.746 273.026C352.466 275.833 350.091 283.068 352.682 288.459C353.832 290.853 351.541 293.874 348.892 294.063C346.243 294.252 343.812 292.302 342.615 289.931C341.417 287.56 341.199 284.831 341.02 282.181C340.767 278.436 340.557 274.613 341.521 270.986C343.348 264.113 349.08 259.002 355.028 255.107C360.976 251.212 367.507 248.026 372.494 242.957C377.995 237.366 381.254 229.628 381.413 221.785C383.707 232.236 378.535 145.507 375.382 146.22ZM351.189 290.025C351.245 287.864 350.574 285.69 349.31 283.937C348.869 286.108 349.602 288.48 351.189 290.025Z" fill="white"/>
<path fill-rule="evenodd" clip-rule="evenodd" d="M276.72 286.616C272.387 289.66 267.902 292.87 265.381 297.518C262.859 302.166 262.976 308.693 267.09 312.027C277.158 320.185 273.938 336.429 279.948 347.89C283.246 354.18 289.594 360.138 287.813 367.009C286.418 372.393 280.627 375.205 275.467 377.325C273.045 378.32 270.482 379.336 267.884 378.998C265.285 378.659 262.739 376.426 263.059 373.835C263.633 369.199 271.777 368.36 271.922 363.692C271.963 362.381 271.291 361.165 270.639 360.026C266.231 352.324 261.823 344.622 257.415 336.92C252.259 347.685 250.189 359.896 251.51 371.75C251.925 375.47 249.141 378.955 245.757 380.58C242.373 382.206 238.496 382.379 234.742 382.523C231.666 382.64 228.393 382.711 225.752 381.136C223.111 379.561 221.631 375.678 223.619 373.337C225.407 371.23 228.687 371.513 231.297 370.588C238.227 368.131 238.524 358.608 237.538 351.345C235.635 337.313 233.731 323.281 231.827 309.249C230.863 302.143 229.786 294.737 225.671 288.854C211.52 268.62 230.035 237.763 216.655 217.015C212.547 210.645 208.416 204.034 207.04 196.588C205.664 189.142 207.659 180.58 213.833 176.165C218.466 172.853 219.023 166.359 219.657 160.712C220.818 150.37 223.655 140.216 228.025 130.764C218.059 123.521 205.979 119.203 193.665 118.482C194.046 120.724 194.859 122.894 196.045 124.837C188.957 122.184 183.495 115.614 182.197 108.182C181.062 110.808 179.928 113.435 178.793 116.062C169.035 96.1791 176.058 72.5589 183.202 51.6022C185.282 45.5002 187.362 39.3982 189.442 33.2961C191.944 25.9542 195.523 17.5724 203.064 15.6572C207.705 14.4784 213.961 18.9346 211.512 23.0358C205.426 21.5114 208.726 27.6363 211.019 25.0446C216.22 19.1662 220.461 12.1806 226.686 7.3611C238.555 -1.82742 256.214 -1.24219 269.099 6.4691C281.983 14.1804 290.425 27.8564 294.604 42.2414C295.209 44.3234 295.721 46.6236 294.825 48.5986C293.929 50.5736 290.996 51.6786 289.514 50.0919C287.45 47.8814 284.583 52.0602 284.718 55.0766C285.413 70.5369 295.277 83.9387 299.866 98.7238C304.341 113.143 303.704 128.577 303.025 143.655C302.079 164.623 299.465 222.635 298.616 230.633C297.016 245.702 293.689 260.654 293.892 275.805C294.154 295.274 300.224 314.157 306.624 332.554C309.287 340.209 312.127 348.033 317.426 354.179C322.724 360.326 331.085 364.519 339 362.661C333.385 368.274 323.795 368.077 316.825 364.259C309.854 360.442 304.947 353.811 300.489 347.249C297.644 343.061 289.909 351.393 286.55 347.603C290.683 346.739 294.591 344.83 297.807 342.104C290.778 323.608 283.749 305.112 276.72 286.616ZM240.623 66.614C239.903 65.8864 238.781 65.165 237.943 65.7541C238.866 66.6847 238.592 68.482 237.434 69.0979C236.055 68.5953 236.546 66.5591 236.16 65.1483C235.664 63.3333 233.56 62.5445 231.722 62.1158C222.286 59.9155 211.313 59.5405 205.043 52.1782C204.46 51.493 203.909 50.7396 203.118 50.3082C201.501 49.4264 199.368 50.2432 198.22 51.6802C197.072 53.1173 196.686 55.0026 196.418 56.8198C195.062 66.0226 195.851 75.5328 198.706 84.3886C199.221 85.9869 199.831 87.6111 200.979 88.8397C204.118 92.1982 209.546 91.2548 214.086 90.4841C218.311 89.7669 222.602 89.433 226.887 89.4879C228.874 89.5134 230.831 89.0615 232.766 88.6124C237.878 87.4253 242.991 86.2383 248.104 85.0512C248.168 78.2483 245.414 71.4613 240.623 66.614Z" fill="white"/>
<path fill-rule="evenodd" clip-rule="evenodd" d="M428.796 465.632L440.962 467.432C443.188 467.761 445.647 468.221 447 469.989C446.377 470.533 445.431 470.448 444.606 470.329C439.899 469.655 435.192 468.98 430.485 468.306L436.085 474.74C437.05 475.848 438.089 477.006 439.504 477.447C440.744 477.833 442.522 477.955 442.67 479.224C440.965 479.939 438.939 479.498 437.367 478.532C435.795 477.566 434.585 476.138 433.403 474.734C431.503 472.479 429.604 470.223 427.704 467.967C427.207 467.377 426.704 466.503 427.211 465.922C427.577 465.503 428.239 465.55 428.796 465.632ZM493.947 415.577C494.322 417.199 492.644 418.454 491.263 419.33C480.193 426.354 474.718 439.617 469.906 452.041C469.534 453.002 469.437 454.51 470.432 454.665C472.36 451.035 476.143 448.518 480.155 448.195C477.11 450.318 475.891 454.355 475.7 458.132C475.509 461.909 476.128 465.705 475.782 469.47C473.889 469.286 473.401 466.703 473.424 464.749C473.47 460.882 473.515 457.014 473.561 453.147C466.568 457.454 464.888 466.926 463.902 475.243C463.513 475.834 462.526 475.579 462.183 474.959C461.84 474.338 461.943 473.569 462.061 472.866C464.923 455.938 471.432 439.671 480.986 425.571C471.756 430.518 463.877 438.097 458.464 447.236C457.078 444.652 459.054 441.568 461.011 439.409C470.23 429.24 481.524 421.068 493.947 415.577ZM408.082 406.577C412.957 409.966 417.832 413.355 422.707 416.744C430.438 422.119 438.248 427.562 444.515 434.587C444.084 428.168 445.696 421.628 449.062 416.145C449.46 415.496 450.159 414.771 450.853 415.085C451.343 415.307 451.484 415.924 451.564 416.456C452.945 425.669 454.326 434.882 455.707 444.095C451.738 436.717 449.795 428.263 450.142 419.894C447.726 423.777 445.746 428.258 446.357 432.789C447.848 443.845 463.384 449.21 464 460.35C450.458 443.667 436.368 426.61 417.483 416.347C426.276 428.832 436.315 440.441 447.402 450.945C450.531 453.909 454.006 457.391 453.783 461.693C446.408 453.027 433.818 449.187 422.857 452.26C429.155 454.599 435.292 457.368 441.212 460.543C444.686 462.405 448.381 464.776 449.418 468.577C439.423 461.099 427.832 455.761 415.649 453.026C424.872 447.654 436.9 447.456 446.294 452.524C432.103 439.734 420.484 424.402 408.957 409.17C408.383 408.411 407.776 407.478 408.082 406.577ZM349.051 355.585C371.841 359.954 394.243 366.341 415.908 374.647C418.476 375.631 421.113 376.694 423.048 378.645C425.358 380.975 426.367 384.257 427.297 387.401C431.198 400.596 435.099 413.792 439 426.987C431.984 413.212 426.968 398.423 424.157 383.226C406.883 390.114 387.632 389.14 369.039 388.598C340.392 387.762 311.707 388.202 283.098 389.917C285.009 390.345 286.92 390.773 288.831 391.2C284.468 392.661 279.754 392.541 275.155 392.379C240.446 391.153 205.791 388.385 171.327 384.087C163.98 383.171 156.257 382.03 150.421 377.48L134.633 424.334C133.732 427.008 130.749 430.244 128.819 428.183C126.554 425.765 122.637 428.284 120.399 430.727C111.894 440.011 103.389 449.294 94.884 458.577C99.8672 449.956 106.166 442.094 113.496 435.347C105.386 435.201 97.2868 438.826 92 444.967C94.0303 432.685 106.678 423.164 119.062 424.594C110.803 425.733 103.026 430.056 97.7066 436.466C106.683 435.299 115.332 431.705 122.486 426.167C125.064 424.172 129.086 424.355 131.47 426.577C136.445 411.708 141.419 396.84 146.393 381.972C147.114 379.818 147.716 377.12 146.079 375.544C174.073 366.277 203.485 361.298 232.973 360.833C209.534 364.472 186.095 368.112 162.655 371.751C159.051 372.31 154.706 373.514 153.856 377.056C157.9 378.082 161.943 379.107 166.01 380.036C228.243 394.252 293.094 385.473 356.931 386.242C378.997 386.507 401.624 387.848 422.586 380.961C390.897 366.277 356.522 357.393 321.677 354.882C330.56 352.448 340.004 353.851 349.051 355.585ZM85.6855 369.304C95.7392 371.705 104.778 377.086 113.638 382.392C120.184 386.312 127.478 391.406 128.115 398.922L128.132 399.185L127.949 398.977C120.925 391.074 112.62 384.301 103.452 379.007C109.752 386.117 116.053 393.227 122.353 400.336C123.982 402.175 125.676 404.484 126.115 406.773C126.202 406.667 126.338 406.597 126.493 406.61L126.445 406.577C126.906 406.699 127.146 407.217 126.905 407.57C126.657 407.599 126.385 407.542 126.201 407.407C126.287 408.373 126.123 409.33 125.61 410.236C123.413 406.67 120.65 403.45 117.454 400.734C119.982 406.188 122.509 411.643 125.037 417.098C122.466 416.246 120.202 414.503 118.728 412.239C118.391 414.118 119.224 416.157 120.783 417.267C118.209 418.559 115.298 419.177 112.42 419.043C113.579 419.883 114.739 420.723 115.899 421.563L91.8806 422.577C92.6197 421.284 93.6438 420.154 94.8595 419.29C76.1359 417.283 62.4506 401.616 70.84 407.276C84.5687 416.537 102.165 419.905 118.362 416.372C109.396 413.761 100.971 409.324 93.7581 403.413C98.8719 402.156 104.538 403.39 108.67 406.639L108.968 406.879L97.8021 391.346C94.0795 386.168 90.357 380.989 86.6344 375.811C97.6949 387.307 108.755 398.803 119.816 410.299C113.967 393.106 101.567 378.212 85.6855 369.304ZM110.568 419.188L110.455 419.316C110.09 419.048 109.725 419.803 110.05 420.118C110.453 420.246 110.923 420.138 111.229 419.847C111.009 419.627 110.789 419.407 110.568 419.188ZM513.369 367.61C521.847 369.452 530.325 371.294 538.803 373.136C541.403 373.7 544.691 375.215 544.255 377.874C544.078 378.958 543.269 379.811 542.472 380.556C539.58 383.261 536.31 385.55 532.791 387.331L541.633 389.547C543.978 390.135 546.444 390.79 548.163 392.51C549.882 394.23 550.447 397.388 548.684 399.062C551.209 403.441 553.561 407.922 555.733 412.491C556.812 414.76 557.765 417.714 556.093 419.577C553.217 413.048 550.34 406.519 547.464 399.991C543.686 402.308 539.064 403.173 534.719 402.376C535.932 400.708 538.173 400.265 540.205 400.041C542.237 399.818 544.45 399.614 545.938 398.194C547.426 396.773 547.346 393.659 545.373 393.119C539.838 391.604 534.304 390.09 528.769 388.575C532.9 384.772 537.313 381.285 541.96 378.153C542.2 376.923 540.714 376.15 539.519 375.827C526.538 372.319 513.326 369.688 500 367.957C503.997 365.732 508.91 366.642 513.369 367.61ZM84.1516 403.588C84.7192 403.68 85.169 404.13 85.5927 404.546C89.1714 408.057 93.6258 410.529 98.3631 411.633C100.731 412.185 103.378 412.519 105 414.453C96.979 415.302 88.6605 411.758 83.3651 405.233C83.2103 405.042 83.0523 404.837 83.0103 404.588C82.9081 403.982 83.5841 403.497 84.1516 403.588ZM100.519 405.86C104.585 409.072 109.349 411.402 114.387 412.643C110.369 409.362 105.582 407.021 100.519 405.86ZM109.753 403.462C111.257 407.288 114.426 410.431 118.274 411.912C115.942 408.641 113.047 405.77 109.753 403.462ZM187.372 189.322C181.738 192.065 176.579 195.773 172.19 200.234C162.321 210.267 149.589 217.475 135.884 220.785L170.58 201.15C170.029 197.338 164.291 197.905 160.841 199.644C154.859 202.659 149.034 206.02 143.675 210.032C140.495 212.413 137.485 215.02 134.676 217.825C123.687 228.8 115.954 242.635 110.124 257.006C101.746 277.657 97.0282 300.088 99.038 322.271C101.048 344.454 110.167 366.363 126.367 381.717C126.935 379.97 127.502 378.222 128.07 376.475C130.566 377.715 133.524 378.005 136.214 377.273C132.987 375.402 129.592 373.36 127.885 370.052C126.178 366.745 127.083 361.825 130.605 360.589C127.171 357.52 124.812 353.281 124.018 348.755C127.892 348.043 131.766 347.331 135.64 346.619C131.841 337.934 132.601 327.413 137.609 319.358C138.394 318.095 139.661 316.736 141.107 317.099C143.417 317.679 144.093 322.147 146.297 321.248L154.91 309.066L163.249 297.27L163.112 297.473C159.818 302.461 159.688 309.378 162.863 314.456C167.289 309.788 173.308 306.646 179.68 305.679C180.203 308.574 180.726 311.47 181.249 314.366C183.595 312.423 186.118 310.401 189.144 310.011C192.17 309.621 195.716 311.653 195.73 314.692C195.742 317.194 193.545 319.974 195.152 321.897C197.472 320.403 199.967 318.856 202.729 318.865C205.491 318.874 208.421 321.189 207.969 323.904C207.28 328.045 206.591 332.186 205.901 336.327C210.585 334.8 216.97 333.882 219.326 338.193C221.02 341.295 219.256 345.169 216.961 347.861C214.666 350.552 211.737 352.917 210.64 356.275C209.118 353.148 211.982 349.786 214.393 347.275C216.805 344.765 218.971 340.575 216.462 338.16C213.115 334.938 207.352 340.169 203.063 338.368C203.998 332.796 204.933 327.223 205.868 321.651C201.015 321.633 196.164 323.045 192.084 325.663C191.702 321.26 191.97 316.803 192.877 312.477C188.133 313.471 183.468 314.843 178.942 316.573C177.89 313.78 177.453 310.759 177.668 307.784L161.887 316.978C161.475 315.42 160.403 314.047 158.989 313.265C160.424 321.555 161.859 329.845 163.293 338.135C158.808 329.955 156.717 320.49 157.341 311.19C152.431 314.327 148.896 319.526 147.792 325.232C144.669 324.519 141.913 322.353 140.491 319.494C134.749 327.543 133.997 338.842 138.623 347.576C134.876 349.206 130.902 350.319 126.85 350.872L134.052 362.256C132.171 362.501 130.379 363.375 129.032 364.705C130.397 370.869 135.516 376.049 141.683 377.506C138.795 379.31 135.345 380.21 131.939 380.048C136.172 381.271 140.158 383.335 143.594 386.085C138.714 385.309 133.989 383.578 129.767 381.021C131.881 385.481 135.732 389.096 140.328 390.935C137.586 391.044 134.817 390.398 132.409 389.088C135.033 392.563 136.359 396.988 136.075 401.327C134.218 397.687 132.36 394.047 130.502 390.407C130.298 394.014 130.095 397.622 129.891 401.229C129.467 400.722 129.038 400.219 128.604 399.721L128.17 399.228L128.271 398.989C129.886 394.931 128.652 390.164 126.253 386.485C123.792 382.711 120.25 379.793 116.967 376.702C103.007 363.563 93.2284 346.726 83.6495 330.146C80.0455 323.907 76.4415 317.669 72.8374 311.43C67.9983 303.054 62.9843 293.538 65.4419 284.189C65.7933 282.852 66.3493 281.48 67.4663 280.66C65.7314 282.624 67.0468 285.751 68.8288 287.673C70.6108 289.595 72.9373 291.366 73.311 293.955C77.3257 321.777 94.6224 345.641 111.386 368.252C90.6852 332.966 94.0524 287.535 110.806 250.229C119.921 229.933 133.665 210.465 153.871 201.016C158.371 198.911 163.102 197.346 167.819 195.787C174.337 193.632 180.854 191.477 187.372 189.322ZM447.902 386.348C448.466 386.48 449.129 386.735 449.234 387.317C449.322 387.809 448.95 388.252 448.594 388.594C446.765 390.347 444.583 391.713 442.223 392.581C441.479 392.855 441.501 394.05 442.09 394.588C442.68 395.126 443.539 395.185 444.329 395.218C473.553 396.412 502.776 397.607 532 398.802C531.716 400.311 529.758 400.616 528.254 400.573C500.566 399.785 472.886 398.736 445.217 397.428C442.353 397.292 438.471 395.935 439.027 393.064C439.555 390.338 443.424 390.305 445.51 388.52L433 386.745C437.829 385.337 443.008 385.199 447.902 386.348ZM278.245 390.263L278.41 390.377C279.201 390.923 280.385 390.795 281.041 390.093C280.204 389.546 279.01 389.618 278.245 390.263ZM269.099 6.4691C281.983 14.1804 290.425 27.8564 294.604 42.2414C295.209 44.3234 295.721 46.6236 294.825 48.5986C293.953 50.5203 291.153 51.6182 289.638 50.2147L289.514 50.0919C287.45 47.8814 284.582 52.0602 284.718 55.0766C285.413 70.5369 295.277 83.9387 299.866 98.7238C304.341 113.143 303.704 128.577 303.025 143.655C302.079 164.623 301.134 185.591 300.189 206.559C299.827 214.594 299.465 222.635 298.615 230.633C297.016 245.702 293.689 260.654 293.892 275.805C294.154 295.274 300.224 314.157 306.624 332.554C309.287 340.209 312.127 348.033 317.426 354.179C322.724 360.326 331.085 364.519 339 362.661C333.385 368.274 323.795 368.077 316.825 364.259C309.854 360.442 304.947 353.811 300.489 347.249C297.644 343.061 289.909 351.393 286.55 347.603C290.683 346.739 294.591 344.83 297.807 342.104C290.778 323.608 283.749 305.112 276.72 286.616C272.387 289.66 267.902 292.87 265.381 297.518C262.859 302.166 262.976 308.693 267.09 312.027C277.158 320.185 273.938 336.429 279.948 347.89C283.246 354.18 289.594 360.138 287.813 367.009C286.418 372.393 280.627 375.205 275.467 377.325C273.045 378.32 270.482 379.336 267.884 378.998C265.285 378.659 262.739 376.426 263.059 373.835C263.633 369.199 271.777 368.36 271.922 363.692C271.963 362.381 271.291 361.165 270.639 360.026C266.231 352.324 261.823 344.622 257.415 336.92C252.259 347.685 250.188 359.896 251.51 371.75C251.925 375.47 249.141 378.955 245.757 380.58C242.373 382.206 238.496 382.379 234.742 382.523C231.666 382.64 228.393 382.711 225.752 381.136C223.111 379.561 221.631 375.678 223.619 373.337C225.407 371.23 228.687 371.513 231.297 370.588C238.227 368.131 238.524 358.608 237.538 351.345L231.827 309.249C230.863 302.143 229.786 294.737 225.671 288.854C211.52 268.62 230.035 237.763 216.654 217.015C212.547 210.645 208.416 204.034 207.04 196.588C205.664 189.142 207.659 180.58 213.833 176.165C218.466 172.853 219.023 166.359 219.657 160.712C220.818 150.37 223.655 140.216 228.025 130.764C218.059 123.521 205.979 119.203 193.665 118.482C194.046 120.724 194.859 122.894 196.045 124.837C188.957 122.184 183.495 115.614 182.197 108.182C181.062 110.808 179.928 113.435 178.793 116.062C169.035 96.1791 176.058 72.5589 183.202 51.6022C185.282 45.5002 187.362 39.3982 189.442 33.2961C191.944 25.9542 195.523 17.5724 203.064 15.6572C207.705 14.4784 213.961 18.9346 211.512 23.0358C205.425 21.5114 198.946 24.808 194.931 29.6141C190.917 34.4203 188.861 40.5095 186.888 46.4454C180.272 66.3568 173.585 87.5702 178.59 107.943C179.352 106.526 180.805 105.498 182.399 105.248C184.044 109.861 186.571 114.161 189.803 117.848C196.637 115.342 204.178 114.782 211.31 116.25C210.767 116.917 210.223 117.585 209.68 118.252C215.346 122.105 221.908 124.64 228.699 125.601C232.351 119.424 236.002 113.247 239.654 107.071L240.326 105.931C243.575 100.409 246.739 94.703 247.756 88.4022C236.653 91.1764 225.287 92.9052 213.86 93.5579C208.879 93.8425 203.338 93.7296 199.668 90.3621C197.438 88.316 196.281 85.3732 195.43 82.4743C192.355 72.0008 192.4 60.6385 195.56 50.1899C191.068 49.9225 189.804 43.2707 192.41 39.6163C195.016 35.9618 199.55 34.3282 203.328 31.8935C212.866 25.7468 217.716 14.3054 226.686 7.3611C238.555 -1.82742 256.214 -1.24219 269.099 6.4691ZM386.033 141.577C395.909 146.696 404.771 153.765 411.959 162.257C412.329 166.837 413.055 171.388 414.13 175.856C415.603 171.563 417.095 167 416.113 162.569C415.131 158.139 410.632 154.161 406.29 155.477C408.096 153.261 411.627 153.031 414.106 154.454C416.585 155.877 418.104 158.577 418.823 161.344C421.128 170.218 416.225 179.399 410.193 186.302C407.562 189.312 404.63 192.188 403.019 195.848C401.408 199.507 401.48 204.28 404.412 206.998C411.743 213.792 414.189 224.511 413.78 234.499C413.371 244.487 410.523 254.195 408.929 264.064C407.159 275.016 406.938 286.218 408.274 297.232C408.687 300.633 409.281 304.114 411.057 307.044C412.833 309.974 416.048 312.263 419.464 312.011C418.368 313.58 415.869 313.826 414.407 312.648L414.278 312.536L415.981 314.307C416.645 314.997 417.309 315.687 417.973 316.378C416.366 316.041 414.76 315.704 413.154 315.368C426.582 323.002 440.487 329.796 454.762 335.695C453.928 332.89 450.987 331.364 448.326 330.147C440.895 326.749 433.464 323.35 426.033 319.952C437.196 320.964 447.976 325.813 456.141 333.495C465.977 342.749 481.897 342.231 492.563 350.514C494.85 352.291 496.908 354.558 497.676 357.35C498.754 361.274 497.028 365.565 494.186 368.476C491.344 371.388 487.54 373.146 483.735 374.588C472.368 378.894 460.145 380.926 447.997 380.528C446.966 378.716 447.996 376.303 449.674 375.065C451.351 373.828 453.488 373.449 455.525 373.011C464.194 371.146 472.495 367.585 479.819 362.587C481.465 361.464 483.251 359.448 482.195 357.759C481.803 357.131 481.106 356.774 480.438 356.455C468.936 350.964 456.086 348.324 443.351 348.835L454.629 346.797C444.693 340.869 434.248 335.796 423.446 331.652C420.088 330.363 416 329.255 413.145 331.444C406.178 336.787 399.21 342.13 392.243 347.473C401.227 347.631 410.168 349.841 418.192 353.886C416.356 357.899 412.23 360.762 407.829 361.076C409.911 358.94 411.994 356.805 414.076 354.669C399.245 345.475 378.093 355.084 363.241 345.924C356.616 341.838 352.225 334.475 345.043 331.475C338.193 328.613 330.389 330.358 323.181 332.14C318.454 333.309 313.488 334.607 310 338.005C310.097 334.586 313.346 332.112 316.541 330.894C319.736 329.676 323.283 329.113 325.972 327.001C328.701 324.858 330.095 321.472 332.246 318.751C334.398 316.03 338.211 313.884 341.251 315.555C340.314 308.329 346.453 302.436 350.614 296.456C355.354 289.645 357.887 281.323 357.746 273.026C352.466 275.832 350.091 283.068 352.682 288.459C353.832 290.853 351.541 293.874 348.892 294.063C346.243 294.251 343.812 292.302 342.615 289.931C341.417 287.56 341.199 284.831 341.02 282.181C340.767 278.436 340.557 274.613 341.521 270.986C343.348 264.113 349.08 259.002 355.028 255.107C360.976 251.212 367.507 248.026 372.494 242.957C377.995 237.366 381.254 229.628 381.413 221.785C383.707 232.236 378.296 243.896 368.834 248.888C360.468 253.302 351.962 258.306 346.722 266.183C341.481 274.06 340.552 285.592 347.058 292.46C345.991 286.879 347.483 280.861 351.032 276.424C353.906 272.833 357.924 270.369 361.895 268.048C371.103 262.667 380.529 257.657 390.14 253.035C389.488 250.556 391.542 247.742 394.101 247.608C391.209 243.002 393.954 235.947 399.198 234.509C397.652 236.483 396.06 238.551 395.547 241.006C395.034 243.46 395.958 246.411 398.265 247.391C393.724 247.421 392.94 254.659 388.769 256.457C380.183 260.159 371.864 264.48 363.896 269.374C363.308 269.736 362.701 270.136 362.133 270.578C362.242 270.577 362.357 270.608 362.477 270.675C363.085 274.842 363.163 279.085 362.709 283.271C362.645 283.854 362.387 284.604 361.796 284.576C361.195 284.548 361.019 283.754 361.018 283.156L361 272.542C360.999 272.143 361.107 271.675 361.292 271.296C360.186 272.342 359.388 273.59 359.455 275.076C359.806 282.896 357.52 290.812 353.054 297.24C357.986 292.945 362.917 288.651 367.849 284.356C369.435 282.975 372.831 282.317 372.789 284.42C365.236 289.444 357.561 294.578 351.839 301.617C346.117 308.656 342.543 318.023 344.532 326.875C342.324 326.05 342.13 323.1 341.607 320.8C341.085 318.501 338.286 316.097 336.716 317.855C332.996 322.022 329.276 326.189 325.555 330.356C333.79 325.258 345.447 326.588 352.323 333.41C361.434 342.45 373.853 351.054 386.162 347.422C397.282 344.14 403.783 331.982 414.653 327.945C404.717 303.895 402.619 276.677 408.753 251.388C410.474 244.292 412.843 237.123 412.071 229.862C410.874 218.61 402.421 209.424 399.608 198.464C398.406 201.636 395.294 203.995 391.916 204.293C395.784 199.336 399.653 194.378 403.522 189.421C409.441 181.835 410.772 170.917 406.805 162.15C402.838 153.383 393.732 147.169 384.122 146.721C385.333 147.894 386.545 149.067 387.756 150.24C385.548 151.008 383.341 151.776 381.133 152.545C380.718 151.057 380.304 149.57 379.889 148.083C381.54 146.748 383.19 145.414 384.841 144.08C381.688 144.794 378.535 145.507 375.382 146.22C378.095 143.302 382.049 141.577 386.033 141.577ZM222.639 16.4186C213.375 23.0655 205.766 31.7025 198.245 40.2599C196.356 42.4795 199.918 45.2416 202.761 45.9058C215.53 48.8887 228.792 49.7658 241.844 48.4907C238.357 53.4173 231.251 54.0143 225.268 53.1176C219.284 52.2209 213.137 50.3205 207.318 51.9752C219.215 57.1549 231.947 60.425 244.875 61.6211L240.515 64.173C249.28 68.8876 251.973 80.6113 249.807 90.2986C247.642 99.9858 241.812 108.376 237.115 117.128C228.674 132.856 223.688 150.413 222.607 168.215C234.587 163.873 238.675 149.19 239.8 136.538C240.925 123.886 241.438 109.649 250.807 101.035C243.686 117.082 241.136 135.113 243.528 152.496C233.546 161.561 223.564 170.625 213.582 179.689C206.27 186.328 209.911 198.258 214.063 207.204C214.568 208.292 215.13 209.445 216.165 210.056C218.731 211.571 221.874 208.516 222.141 205.557C222.409 202.597 221.124 199.691 221.174 196.72C221.225 193.748 223.741 190.353 226.576 191.278C223.501 188.568 227.237 183.751 230.833 181.777C240.384 176.535 251.169 173.542 262.065 173.11C265.35 172.98 266.822 169.074 267.867 165.968C268.911 162.862 271.746 159.279 274.733 160.647C269.33 141.719 280.263 122.017 280.004 102.34C286.636 120.909 269.256 142.595 277.943 160.303C274.562 162.462 271.181 164.622 267.799 166.782C270.635 167.934 273.05 170.086 274.513 172.766C257.957 174.326 241.698 178.972 226.828 186.392C229.942 188.43 228.931 194.188 225.307 195.05C219.934 217.515 222.432 241.769 232.273 262.678C233.905 253.895 240.049 246.068 248.212 242.375C239.731 249.077 234.749 259.441 232.737 270.038C230.726 280.635 231.424 291.549 232.594 302.271C233.866 313.921 235.686 325.511 238.047 336.991C239.655 344.809 241.518 352.875 239.853 360.681C238.188 368.487 231.802 375.959 223.792 375.952C229.115 379.069 235.516 380.314 241.624 379.423C247.397 378.581 249.874 371.462 249.469 365.663C249.064 359.863 247.038 353.934 248.752 348.377C249.605 345.611 251.329 343.193 252.375 340.494C254.252 335.654 253.839 330.287 253.934 325.1C254.146 313.449 257.108 301.856 262.512 291.521C263.447 293.359 263.109 295.761 261.702 297.271C284.55 278.85 298.199 249.615 297.619 220.337L295.679 223.449C297.42 193.344 299.162 163.24 300.904 133.136C301.334 125.69 301.762 118.171 300.535 110.813C297.052 89.9153 280.506 71.4174 282.946 50.3731C278.066 48.7188 273.185 47.0645 268.304 45.4101C275.011 45.9423 281.717 46.4745 288.423 47.0067C289.521 47.0938 290.778 47.1238 291.539 46.3305C292.318 45.5176 292.203 44.2234 291.964 43.125C288.95 29.2873 275.486 20.6531 263.19 13.5519C269.974 14.5706 276.36 18.0347 280.901 23.1581C276.756 12.8828 265.604 6.50481 254.508 5.85887C243.111 5.19536 231.904 9.77176 222.639 16.4186ZM471.043 370.216C466.035 374.266 459.176 374.82 452.833 375.934C451.744 376.125 450.431 376.558 450.254 377.65C451.41 378.367 452.863 378.339 454.221 378.261C465.362 377.618 476.392 375.099 486.708 370.842C486.128 369.509 484.209 369.68 482.811 370.076C481.765 370.372 480.718 370.668 479.672 370.965C478.48 371.302 477.176 371.635 476.034 371.153C474.892 370.672 474.24 368.979 475.173 368.163C473.601 367.949 472.277 369.218 471.043 370.216ZM259.868 306.806C257.799 313.808 256.866 321.253 258.143 328.44C260.012 338.951 266.364 348.022 272.052 357.068C273.797 359.845 275.563 363.008 274.902 366.218C274.186 369.697 270.904 371.958 267.889 373.85C272.889 376.263 278.578 372.618 282.917 369.162C283.575 368.637 284.279 368.039 284.423 367.211C284.555 366.452 284.177 365.708 283.81 365.03C279.627 357.282 275.444 349.535 271.262 341.788L271.166 336.34C271.111 333.173 271.051 329.972 270.276 326.9C268.425 319.566 262.756 313.8 259.868 306.806ZM145.456 369.941C145.813 370.265 146.002 370.752 146.372 371.062C146.939 371.54 147.756 371.481 148.486 371.578C149.216 371.675 150.06 372.158 149.997 372.904C147.924 374.037 145.173 373.714 143.408 372.131C142.872 371.579 142.863 370.588 143.388 370.026C143.914 369.464 144.887 369.423 145.456 369.941ZM445.007 365.589C445.481 365.669 446.094 365.945 445.988 366.415C445.935 366.65 445.712 366.799 445.505 366.919C443.046 368.35 440.255 369.202 437.418 369.386C436.39 369.452 435.516 370.11 434.725 370.788L434.545 370.944C433.707 371.674 432.801 372.448 431.698 372.567C430.595 372.685 429.328 371.775 429.539 370.683C429.725 369.716 430.832 369.282 431.777 369.015C433.486 368.532 435.196 368.049 436.906 367.566C437.135 367.264 437.219 366.857 437.128 366.488L424.818 366.669C424.349 366.676 423.851 366.675 423.453 366.425C423.056 366.176 422.839 365.58 423.144 365.223C430.395 364.253 437.792 364.377 445.007 365.589ZM415.268 320.446C413.975 322.227 414.761 324.888 416.391 326.366C418.021 327.844 420.245 328.434 422.377 328.976C424.403 329.491 426.428 330.006 428.453 330.52C429.003 330.66 429.636 330.785 430.096 330.453C430.376 330.249 430.43 329.813 430.3 329.519L430.28 329.482L431.387 330.126C447.892 339.656 465.286 347.645 483.27 353.954C486.09 354.943 486.73 358.965 485.239 361.555C483.749 364.146 480.92 365.614 478.232 366.921C477.172 367.437 476.273 369.288 477.449 369.378C480.831 367.743 484.734 367.206 488.431 367.867C491.809 368.471 495.113 365.46 495.596 362.062C496.08 358.664 494.284 355.256 491.73 352.963C489.177 350.671 485.945 349.301 482.754 348.04C462.94 340.213 441.857 334.897 423.967 323.329C421.808 321.932 418.569 320.598 417.04 322.666L415.268 320.446ZM307.407 352.92C311.298 358.118 316.846 362.066 323.044 364.046C324.934 364.65 326.956 365.077 328.896 364.662C328.86 363.715 327.652 363.376 326.715 363.213C323.185 362.6 319.877 360.779 317.478 358.127C316.273 356.795 315.275 355.248 313.831 354.177C312.022 352.837 309.596 352.385 307.407 352.92ZM178.607 345.585C180.366 345.684 179.328 349.042 180.817 349.986C181.411 350.363 182.179 350.184 182.871 350.059C186.973 349.321 191.429 351.207 193.762 354.67C194.348 355.539 193.778 356.81 192.861 357.313C191.943 357.817 190.83 357.758 189.791 357.637C188.169 357.448 187.04 359.194 186.478 360.731C185.916 362.269 185.255 364.098 183.672 364.503C182.459 364.813 181.224 364.104 180.271 363.289C179.319 362.474 178.437 361.496 177.249 361.102C176.06 360.707 174.445 361.233 174.244 362.472C174.026 363.815 172.188 363.994 170.841 363.83L166.03 363.247C165.739 361.919 167.623 361.25 168.967 361.427C170.312 361.604 172.027 361.874 172.715 360.702C173.071 360.096 172.984 359.28 173.424 358.731C174.149 357.824 175.591 358.314 176.607 358.874C177.695 359.474 178.782 360.073 179.87 360.673C180.866 361.222 181.942 361.789 183.073 361.674C184.204 361.56 185.295 360.426 184.917 359.351C184.435 357.978 185.892 356.658 187.301 356.308C188.711 355.958 190.271 356.081 191.522 355.342C189.059 352.198 184.174 351.297 180.757 353.357C179.73 353.976 178.777 352.377 178.784 351.177C178.792 349.976 178.734 348.354 177.56 348.117C176.666 347.937 175.951 348.796 175.308 349.445C174.666 350.094 173.444 350.539 172.961 349.764C173.571 347.295 176.074 345.442 178.607 345.585ZM219.444 353.008C221.119 353.63 222.938 354.375 223.74 355.913C224.542 357.452 223.389 359.856 221.621 359.551C221.341 359.168 221.329 358.623 221.591 358.23C221.807 357.906 222.199 357.65 222.21 357.266C222.221 356.874 221.829 356.596 221.479 356.391C219.653 355.318 217.826 354.245 216 353.172C216.761 352.238 218.291 352.58 219.444 353.008ZM282.19 356.821L282.199 357.168C282.227 357.826 282.662 358.449 283.27 358.704C283.706 357.948 283.065 356.831 282.19 356.821ZM157 351.775C155.555 353.285 153.613 354.212 151.619 354.341C152.156 354.964 152.594 355.688 152.912 356.471C151.569 356.977 150.308 355.58 149.456 354.336C149.126 353.853 148.796 353.158 149.157 352.703C149.3 352.523 149.518 352.441 149.726 352.371C152.07 351.582 154.575 351.377 157 351.775ZM291.48 264.299C287.835 270.934 283.525 277.205 278.635 282.989C277.734 284.055 278.341 285.661 278.959 286.911C288.553 306.308 292.974 327.961 302.987 347.145C303.85 348.798 304.917 350.57 306.7 351.131C308.483 351.692 310.86 350.02 310.163 348.291C299.34 321.454 289.686 293.167 291.48 264.299ZM156.595 330.714C157.062 331.04 157.059 331.755 157.026 332.348C156.813 336.139 157.523 339.984 159.068 343.406C159.587 344.557 161.268 344.185 162.152 343.323C163.036 342.461 163.763 341.233 164.944 341.02C166.194 340.795 167.379 341.913 167.772 343.198C168.166 344.482 167.97 345.877 167.77 347.211C167.649 348.023 167.476 348.925 166.843 349.395C166.21 349.865 165.051 349.367 165.23 348.567L165.936 345.409C166.027 345 166.116 344.552 165.945 344.173C165.654 343.528 164.776 343.466 164.174 343.783C163.572 344.1 163.123 344.671 162.556 345.056C160.743 346.289 158.188 345.224 156.919 343.374C155.651 341.523 155.337 339.142 155.063 336.869C153.948 340.674 153.585 344.727 154.005 348.688C153.441 349.274 152.647 348.261 152.477 347.441C151.38 342.174 152.196 336.482 154.718 331.804C155.118 331.063 155.923 330.247 156.595 330.714ZM190 339.544C187.333 340.615 185.096 342.687 183.849 345.241C183.571 345.809 182.593 345.603 182.335 345.027C182.076 344.451 182.314 343.782 182.609 343.223C183.376 341.77 184.54 340.522 185.947 339.647C184.298 339.525 182.649 339.402 181 339.28C183.356 336.904 187.792 337.035 190 339.544ZM169.324 335.597C170.524 335.777 171.439 336.713 172.201 337.635C171.436 337.709 170.702 338.046 170.155 338.572C171.104 339.565 172.052 340.559 173 341.553C170.405 341.807 167.754 340.046 167.049 337.598C166.72 336.458 168.123 335.418 169.324 335.597ZM450.961 239.612C458.973 264.418 463.329 290.368 463.852 316.396C468.883 311.953 475.4 309.173 482.13 308.6C478.593 309.842 476.325 313.285 475.069 316.773C473.813 320.261 473.3 323.99 471.858 327.407C482.894 324.027 494.973 324.042 506 327.448C496.545 330.146 487.617 334.627 479.841 340.577C478.489 339.825 479.667 337.802 480.911 336.885C485.929 333.185 491.502 330.215 497.392 328.104C488.023 326.262 478.158 326.932 469.134 330.025C470.79 324.42 472.205 318.747 473.376 313.025C466.921 316.026 461.022 320.188 456.059 325.245C454.769 324.089 456.644 322.28 457.974 321.171C461.551 318.189 461.699 312.891 461.463 308.28C460.55 290.428 458.167 272.549 452.704 255.505C453.216 274.717 449.27 294.032 441.253 311.55C440.881 312.364 439.605 313.176 439.324 312.327C439.573 311.357 439.822 310.387 440.071 309.417C437.722 306.43 436.609 302.524 437.038 298.767C432.842 303.728 429.194 309.14 426.179 314.875C424.851 315.219 424.734 312.993 425.385 311.8C428.936 305.296 433.426 299.291 438.679 294.024C439.251 298.626 439.824 303.228 440.396 307.83C449.639 286.824 452.796 263.254 449.402 240.602C449.52 239.927 450.289 239.439 450.961 239.612ZM184.536 329.799C185.079 330.124 185.198 331.036 184.607 331.276C183.649 331.665 183.806 332.959 184.038 333.914C184.27 334.869 184.092 336.25 183.05 336.307C182.145 336.357 181.69 335.292 181.64 334.442C181.589 333.593 181.564 332.56 180.77 332.149C178.275 333.625 175.779 335.101 173.283 336.577C172.563 335.778 173.347 334.581 174.168 333.874C176.55 331.825 179.507 330.37 182.658 329.699C183.286 329.566 183.993 329.474 184.536 329.799ZM408.943 325.824C409.162 326.189 408.688 326.87 408.539 326.438L408.535 326.396C408.279 326.385 408.042 326.089 408 325.726C408.317 325.564 408.724 325.458 408.943 325.824ZM68.1889 290.995C68.0152 293.719 68.0194 296.454 68.2015 299.177C68.3716 301.721 68.847 304.534 70.8674 306.1C71.5099 306.598 72.6545 306.809 72.9736 306.063C73.0515 305.88 73.0559 305.676 73.0574 305.478C73.0892 301.213 72.28 296.943 70.6895 292.983C70.2499 291.888 69.3063 290.606 68.1889 290.995ZM223.728 246.562L222.325 258.236C221.882 261.93 221.437 265.652 221.717 269.361C222.086 274.258 223.702 278.965 225.351 283.592C226.387 286.501 227.531 289.535 229.872 291.556C228.5 283.957 228.831 276.056 230.836 268.597C231.014 267.937 231.205 267.269 231.194 266.587C231.176 265.534 230.68 264.557 230.221 263.609C227.483 257.957 225.667 251.862 224.866 245.637C224.515 245.098 223.805 245.924 223.728 246.562ZM349.31 283.937C348.869 286.108 349.602 288.48 351.189 290.025C351.245 287.864 350.574 285.69 349.31 283.937ZM381 133.842C379.361 141.05 371.408 144.161 365.159 147.815C360.716 150.413 356.711 153.802 353.375 157.788C352.582 158.735 351.126 158.023 349.996 157.568C346.463 156.148 342.181 158.401 340.577 161.943C338.972 165.484 339.726 169.826 341.802 173.096C343.879 176.367 347.105 178.695 350.496 180.447C351.56 179.931 351.234 178.167 350.306 177.423C349.378 176.678 348.134 176.487 347.147 175.827C346.23 175.213 345.602 174.239 345.054 173.263C343.415 170.348 342.241 166.759 343.505 163.652C344.769 160.545 349.443 159.075 351.378 161.791C354.322 165.923 347.654 172.381 350.703 176.432C350.412 174.445 351.533 172.327 353.312 171.503C353.194 175.219 353.077 178.935 352.959 182.651C353.85 181.706 355.089 181.117 356.365 181.03C356.491 184.441 356.88 187.841 357.526 191.188C358.303 190.682 358.665 189.59 358.351 188.7L380.438 208.948C375.628 206.704 371.137 203.732 367.154 200.159C371.129 207.693 367.251 216.802 364.886 225.024C362.883 231.985 362.013 239.29 362.324 246.543C360.899 245.024 358.423 246.146 356.79 247.424C351.539 251.53 347.083 256.712 343.759 262.577C343.353 261.872 343.39 260.989 343.538 260.183C344.475 255.071 348.994 251.648 352.98 248.455C356.965 245.261 361.089 240.971 360.675 235.787C360.116 228.781 363.344 222.138 365.315 215.409C367.286 208.68 367.635 200.39 362.612 195.634C360.872 193.986 358.653 192.953 356.9 191.32C355.146 189.686 353.886 187.035 354.883 184.827C354.034 185.336 353.184 185.845 352.335 186.354C352.098 182.938 348.217 181.418 345.298 179.782C340.29 176.975 336.628 171.306 337.03 165.447C337.432 159.588 342.542 154.192 348.233 154.522C350.677 154.664 353.815 155.437 355.029 153.248C359.513 145.158 371.143 144.226 376.424 136.665C377.575 135.018 379.304 132.81 381 133.842ZM217.081 213.973L216.946 214.255C217.378 214.357 217.81 214.46 218.242 214.562C218.808 213.96 218.682 212.77 217.896 212.513C217.11 212.256 216.36 213.568 217.081 213.973ZM362.214 184.577C362.297 185.799 362.689 187.001 363.347 188.055C363.343 187.3 364.609 187.098 365.158 187.647C365.706 188.195 365.709 189.039 365.678 189.793C368.217 189.528 370.027 191.918 371.929 193.531C376.363 197.29 382.977 197.293 388.921 196.973C390.562 196.885 392.747 197.172 393 198.709C390.209 199.655 387.167 199.652 384.206 199.506C379.576 199.276 374.883 198.7 370.66 196.892C366.436 195.083 362.699 191.893 361.221 187.736C360.798 186.547 360.906 184.784 362.214 184.577ZM365.526 179.578C367.207 184.017 373.299 186.335 377.711 184.214C378.5 183.835 379.249 183.334 380.117 183.178C381.577 182.915 382.996 183.67 384.357 184.239C386.275 185.041 388.419 185.514 390.469 185.109C392.519 184.704 394.431 183.281 394.917 181.334C395.042 180.834 395.087 180.282 395.434 179.889C395.782 179.496 396.591 179.452 396.761 179.94C397.745 182.752 395.555 185.908 392.663 186.979C389.77 188.049 386.486 187.48 383.588 186.423C382.615 186.068 381.616 185.652 380.576 185.727C379.531 185.802 378.605 186.361 377.648 186.772C373.212 188.678 367.447 187.084 364.761 183.207C364.318 182.568 363.942 181.833 364.007 181.068C364.072 180.304 364.725 179.545 365.526 179.578ZM411.163 176.031C410.903 177.282 411.071 178.62 411.634 179.767C412.51 179.362 413.038 178.317 412.845 177.371L412.852 177.367C412.838 176.546 411.965 175.856 411.163 176.031ZM380.17 173.592C380.913 173.696 381.513 174.327 382.04 174.949C383.107 176.207 384.097 177.554 385 178.977C382.373 179.715 379.608 179.773 376.96 179.147C376.143 178.954 375.808 177.688 376.109 176.779C376.411 175.869 377.123 175.251 377.801 174.684C378.509 174.093 379.307 173.472 380.17 173.592ZM378.669 177.398L378.921 177.525L380.669 177.131C380.864 176.811 380.938 176.394 380.869 176.01C379.996 175.504 378.789 176.266 378.669 177.398ZM345.874 163.343C344.889 164.354 344.694 165.965 345.015 167.359C345.576 169.804 347.479 171.797 347.806 174.287C348.489 174.095 348.791 173.243 348.745 172.515C348.699 171.788 348.417 171.09 348.387 170.362C348.287 167.924 350.916 165.405 349.54 163.421C348.731 162.255 346.859 162.332 345.874 163.343ZM396.747 154.59C399.541 154.783 401.715 157.221 403.227 159.719C404.447 161.737 405.467 164.194 404.776 166.477C403.846 169.549 400.418 170.736 397.457 171.487L394.341 172.278C393.513 172.487 392.649 172.698 391.82 172.494C390.673 172.213 389.831 171.207 389.069 170.256C387.527 168.328 385.894 166.137 386.005 163.612C386.135 160.672 388.559 158.489 390.876 156.867C392.647 155.627 394.629 154.443 396.747 154.59ZM374.194 158.606C376.857 160.486 378.566 163.793 377.827 166.88C377.088 169.966 373.488 172.337 370.344 171.35C367.462 170.446 364.48 169.451 362.335 167.4C360.189 165.349 359.164 161.919 360.822 159.489C361.75 158.129 363.352 157.3 364.997 156.895C368.123 156.126 371.597 156.772 374.194 158.606ZM396.983 158.036C395.232 158.269 393.439 158.383 391.794 159.056C390.148 159.73 388.63 161.099 388.278 162.931C387.821 165.303 389.374 167.532 390.832 169.396C391.516 170.27 392.767 170.268 393.828 170.11C397.053 169.631 400.177 168.395 402.908 166.515C401.526 166.177 400.143 165.838 398.761 165.499C398.946 164.619 400.091 164.578 400.942 164.611C401.792 164.644 402.954 164.076 402.646 163.235C401.337 162.821 399.964 162.635 398.6 162.688C398.198 162.704 397.727 162.787 397.548 163.168C397.409 163.465 397.51 163.816 397.572 164.141C397.982 166.312 396.045 168.602 393.964 168.407C391.882 168.212 390.355 165.597 391.118 163.536C391.882 161.475 394.681 160.659 396.331 162.017C396.7 161.667 396.664 160.952 396.261 160.646C397.477 159.761 399.073 159.489 400.49 159.924C400.656 159.122 400.021 158.334 399.287 158.072C398.552 157.811 397.752 157.934 396.983 158.036ZM366.12 159.238C364.079 159.495 361.671 160.834 362.041 162.772C362.3 164.133 363.952 164.928 365.384 164.739C366.816 164.55 368.025 163.635 369.037 162.648L364.799 162.983C364.245 163.027 363.43 162.769 363.631 162.273C363.687 162.135 363.818 162.038 363.947 161.956C365.785 160.776 368.439 160.931 370.114 162.315C371.749 162.833 373.328 163.993 373.611 165.619C373.895 167.245 372.222 169.076 370.592 168.541C370.448 169.749 372.387 170.123 373.489 169.519C376.143 168.066 376.392 164.128 374.461 161.86C372.53 159.591 369.152 158.856 366.12 159.238ZM365.06 165.451C364.845 167.069 366.644 168.612 368.302 168.232C367.814 166.984 366.721 165.966 365.403 165.535L365.06 165.451ZM369.161 166.255L370.921 167.659L370.973 167.404C371.718 167.019 371.774 165.831 371.068 165.384C370.363 164.937 369.241 165.449 369.161 166.255ZM394.248 163.789C393.318 163.881 392.777 165.275 393.393 166.019L393.214 166.034C393.779 166.822 395.136 166.699 395.546 165.81C395.956 164.921 395.178 163.697 394.248 163.789ZM198.22 51.6802C197.072 53.1173 196.686 55.0026 196.418 56.8198C195.061 66.0226 195.851 75.5328 198.706 84.3886C199.221 85.9869 199.831 87.6111 200.979 88.8397C204.118 92.1982 209.546 91.2548 214.086 90.4841C218.311 89.7669 222.602 89.433 226.887 89.4879C228.874 89.5134 230.831 89.0615 232.766 88.6124C237.878 87.4253 242.991 86.2383 248.104 85.0512C248.168 78.2483 245.414 71.4613 240.623 66.614C239.903 65.8864 238.781 65.165 237.943 65.7541C238.865 66.6847 238.592 68.482 237.434 69.0979C236.055 68.5953 236.546 66.5591 236.16 65.1483C235.664 63.3333 233.56 62.5445 231.722 62.1158C222.286 59.9155 211.313 59.5405 205.043 52.1782C204.46 51.493 203.909 50.7396 203.118 50.3082C201.501 49.4264 199.368 50.2432 198.22 51.6802ZM266.045 23.6515C271.512 26.204 276.368 30.1785 280.058 35.1191C280.557 35.7866 281.058 36.5538 280.994 37.399C280.878 38.9348 279.116 39.599 277.676 39.9048C275.127 40.4464 272.578 40.9879 270.028 41.5295C269.096 41.7275 267.629 41.301 268.01 40.3873C271.08 38.4201 274.763 37.5244 278.346 37.8737C278.632 37.2519 278.289 36.5209 277.91 35.9563C276.657 34.0916 274.942 32.6339 273.249 31.2017C270.499 28.8749 267.75 26.5481 265 24.2213C265.058 23.7417 265.638 23.4259 266.045 23.6515ZM245.961 16.0992C248.362 17.2071 249.231 20.079 249.667 22.6416C249.938 24.2335 250.142 25.8638 249.875 27.4563C249.408 30.2438 247.489 32.6779 245.055 34.1964C242.62 35.715 239.714 36.388 236.831 36.5424C230.154 36.9001 223.368 34.4803 218.492 30.0032C216.37 28.0544 216.656 24.4694 218.44 22.2193C220.224 19.9693 223.079 18.8063 225.886 18.0508C229.063 17.1953 232.337 16.7402 235.6 16.2872C237.84 15.9762 240.086 15.6648 242.347 15.5893C243.575 15.5483 244.849 15.5864 245.961 16.0992ZM219.325 25.1613C218.589 26.4427 219.801 27.9288 220.913 28.9169C223.091 30.8525 225.821 32.9331 228.664 32.1912C230.57 31.6937 232.617 29.9984 234.207 31.1409C234.073 31.7573 233.349 32.0543 232.711 32.1347C232.072 32.215 231.375 32.1948 230.853 32.5642C230.332 32.9336 230.255 33.9067 230.873 34.0838C232.89 34.6619 234.769 32.9631 236.204 31.4609C237.639 29.9587 239.698 28.375 241.623 29.1998C241.879 29.3093 242.144 29.5053 242.148 29.7782C242.152 30.1763 241.645 30.3467 241.248 30.4339C239.13 30.8985 237.236 32.2663 236.159 34.1095C238.979 33.7065 241.508 32.2466 243.955 30.8163C245.686 29.8047 247.586 28.5617 247.936 26.6193C245.518 27.3183 243.003 27.6971 240.482 27.7419C235.206 27.8356 230.076 31.0141 224.933 29.8615C223.632 29.57 222.736 28.4375 221.953 27.3803C222.765 26.6186 224.065 27.2465 225.125 27.6131C226.186 27.9797 227.889 27.4189 227.494 26.3884C226.249 25.87 225.004 25.3516 223.759 24.8332C222.258 24.2078 220.124 23.7689 219.325 25.1613ZM231.17 25.6581C230.801 25.7084 230.392 25.8058 230.196 26.1161C229.914 26.5649 230.298 27.1847 230.807 27.356C231.317 27.5272 231.874 27.3892 232.394 27.2505C233.678 26.908 234.961 26.5654 236.245 26.2228C234.637 25.6221 232.874 25.4259 231.17 25.6581ZM242.919 23.4511C240.951 24.1751 238.897 24.9553 237.516 26.5072C240.595 25.9838 243.73 25.7705 246.854 25.8719C247.96 25.3901 247.547 23.5651 246.437 23.0919C245.327 22.6186 244.053 23.0343 242.919 23.4511ZM244.495 19.1155C243.401 19.2024 242.426 19.7893 241.404 20.1801C238.5 21.2903 235.258 20.808 232.145 20.6438C229.411 20.4996 226.653 20.6165 223.968 21.1447C222.525 21.4287 220.837 22.1162 220.656 23.5456C223.116 22.4152 225.982 22.8186 228.692 23.0144C234.829 23.4576 241.055 22.6926 246.889 20.7784C246.866 19.7049 245.589 19.0286 244.495 19.1155ZM201.219 19.4643C200.492 19.7851 199.744 20.2299 199.454 20.9671C199.164 21.7044 199.637 22.7443 200.431 22.7223C202.839 21.0433 205.883 20.2932 208.8 20.6601C209.723 20.7763 210.667 20.0279 210.76 19.1049C207.688 18.0165 204.2 18.148 201.219 19.4643ZM233.003 6.86415L233.011 6.97218C232.103 6.64949 230.984 7.14793 230.62 8.03709C232.117 7.93306 233.598 7.61176 235.003 7.08651C234.998 6.26361 233.699 6.42026 233.003 6.86415ZM252.151 3.5669C251.541 3.84406 252.257 4.98192 252.774 4.55534L252.788 4.60278C253.25 4.23427 252.691 3.32421 252.151 3.5669Z" fill="#00160A"/>
</svg>
