<svg width="1256" height="479" viewBox="0 0 1256 479" fill="none" xmlns="http://www.w3.org/2000/svg">
<path d="M624.368 513.748L650.763 290.935C651.539 283.601 620.332 271.899 615.984 299.985C608.997 345.546 610.55 514.06 610.55 514.06C610.55 514.06 609.308 522.174 608.687 524.046C597.508 558.373 613.189 571.168 622.971 580.374C625.145 582.402 628.716 581.154 629.026 578.189C630.113 567.111 621.418 560.87 626.542 547.295C628.871 551.04 628.25 551.04 633.839 554.16C637.1 532.94 624.368 513.748 624.368 513.748Z" fill="#FFA18A"/>
<path d="M833.508 502.514L806.337 279.857C805.561 272.523 836.768 260.821 841.116 288.75C848.258 334.156 847.171 502.826 847.171 502.826C847.171 502.826 848.413 510.94 849.034 512.812C860.368 547.139 844.687 559.934 834.905 569.14C832.732 571.168 829.161 569.92 828.695 566.955C827.453 555.877 836.303 549.636 831.179 536.061C829.005 539.806 829.471 539.806 823.882 542.926C820.776 521.706 833.508 502.514 833.508 502.514Z" fill="#FFA18A"/>
<path d="M783.358 183.117C750.442 193.103 704.795 194.975 684.611 183.117V79.6679H783.358V183.117Z" fill="#465978"/>
<path d="M694.858 204.961C690.666 207.458 691.287 221.657 691.132 226.65C690.976 231.955 695.168 236.48 699.982 238.352C704.795 240.225 710.229 239.913 715.508 239.6C730.103 238.352 744.542 236.324 758.826 233.203C765.347 231.799 776.216 230.083 782.737 231.643C770.782 221.969 773.732 213.231 765.037 202.309C754.168 188.89 753.392 168.762 759.758 155.655C727.929 162.365 700.447 138.804 705.416 164.081C709.142 183.585 712.403 194.351 694.858 204.961Z" fill="#FF7E64"/>
<path d="M732.121 187.642C756.388 187.642 776.061 155.787 776.061 116.491C776.061 77.1961 756.388 45.341 732.121 45.341C707.854 45.341 688.182 77.1961 688.182 116.491C688.182 155.787 707.854 187.642 732.121 187.642Z" fill="#FFA18A"/>
<path d="M697.032 187.954C696.876 190.763 695.013 193.259 692.218 194.039C678.555 197.94 639.895 202.309 639.274 170.947C638.808 141.3 663.65 14.9148 738.332 21.3121C794.847 26.149 833.974 137.4 829.471 172.819C826.987 192.791 791.742 197.16 772.489 190.607C769.539 189.67 767.832 186.862 768.142 183.741C772.024 146.137 781.961 91.3703 763.484 84.661C740.661 76.2352 704.795 79.3559 696.721 90.5902C681.195 112.591 698.584 156.436 697.032 187.954Z" fill="#222E44"/>
<path d="M724.668 96.6754C734.139 95.8952 741.592 94.1789 767.832 88.7178C773.266 87.6256 779.011 86.2213 782.737 82.1644C788.792 75.6111 786.929 64.6889 781.961 57.3554C776.992 50.0219 769.539 44.7168 763.795 38.0075C761.155 34.8868 758.826 31.4541 755.721 28.8016C744.387 19.7517 717.526 22.2483 705.726 29.1137C695.789 35.0429 689.424 45.497 685.076 56.2632C680.418 67.9656 671.724 82.0084 681.039 90.1221C689.889 98.0797 713.645 97.6116 724.668 96.6754Z" fill="#465978"/>
<path d="M726.376 93.8668C735.382 93.0867 742.524 91.3703 767.366 86.2213C772.489 85.1291 777.924 83.8808 781.495 80.136C787.239 73.8948 785.532 63.5967 780.718 56.7313C775.905 49.7098 768.918 44.7168 763.329 38.3195C760.845 35.3549 758.671 32.0783 755.566 29.5817C745.163 21 719.545 23.3405 708.366 29.8938C698.895 35.3549 692.839 45.341 688.803 55.483C684.3 66.5613 676.226 79.824 684.921 87.6256C693.461 95.1151 715.974 94.803 726.376 93.8668Z" fill="#222E44"/>
<path d="M678.711 58.1356C676.382 60.164 674.518 62.5044 673.121 65.157C671.568 67.6535 670.482 70.4621 669.705 73.2706C669.084 76.0792 668.618 79.0438 667.997 82.0084C667.376 84.973 666.289 88.2497 664.737 90.9022C663.029 93.5548 661.166 95.7392 659.768 98.3917C658.371 100.888 657.439 103.697 656.508 106.505C655.576 109.314 654.955 112.279 654.334 115.243C653.713 118.052 653.092 121.016 652.626 124.137C653.092 118.052 653.713 112.123 655.266 106.193C656.042 103.229 657.129 100.42 658.526 97.7676C659.924 95.1151 661.787 92.6186 663.339 90.1221C666.755 84.973 666.911 78.7317 668.463 72.9586C670.171 67.0294 673.742 61.7243 678.711 58.1356Z" fill="#465978"/>
<path d="M679.021 92.9306C679.642 95.8952 679.021 98.8598 678.245 101.668C677.158 104.477 675.916 107.13 674.829 109.782C673.897 112.435 672.966 114.931 672.811 117.584C672.811 120.392 673.276 123.201 673.897 126.009C674.984 131.627 675.761 137.712 675.45 143.485C675.295 146.293 675.139 149.258 674.829 152.223L673.742 160.804C674.053 155.031 674.363 149.258 674.363 143.485C674.363 137.712 673.587 131.939 672.345 126.321C671.724 123.357 671.258 120.548 671.413 117.584C671.568 114.619 672.5 111.81 673.742 109.158C674.984 106.505 676.382 104.009 677.468 101.356C678.555 98.7038 679.176 95.8952 679.021 92.9306Z" fill="#465978"/>
<path d="M654.955 140.988C654.645 143.329 654.334 145.513 654.334 147.854C654.179 150.038 654.334 152.223 654.8 154.251C655.421 156.28 656.353 157.996 657.595 160.024C658.992 162.053 659.768 164.549 660.234 166.89C661.011 171.727 660.545 176.252 660.234 180.777C660.079 182.961 660.079 185.301 660.234 187.486C660.389 189.67 660.855 191.855 661.942 193.883C659.303 190.138 658.837 185.301 658.992 180.777C658.992 176.252 659.458 171.727 658.682 167.202C658.371 164.861 657.595 162.677 656.508 160.804C655.266 158.776 654.179 156.748 653.713 154.563C652.782 150.038 653.868 145.357 654.955 140.988Z" fill="#465978"/>
<path d="M773.576 44.7168C775.284 45.809 777.147 46.9013 778.7 48.3056C780.253 49.7098 781.65 51.4262 782.737 53.2986C785.066 56.8873 786.774 60.7881 787.861 65.001C788.792 69.0578 789.724 72.9586 791.432 76.5473C792.208 78.4197 793.139 80.136 794.226 81.8524C795.313 83.5687 796.4 85.2851 797.797 86.8454C794.692 84.1929 792.053 80.7602 790.189 77.0154C788.171 73.2706 787.239 69.2138 786.153 65.313C785.221 61.2562 783.513 57.5114 781.495 53.9227C779.787 50.1779 776.837 47.2133 773.576 44.7168Z" fill="#465978"/>
<path d="M784.289 103.385C785.376 105.569 786.463 107.598 787.239 109.782C788.016 112.123 788.326 114.619 788.171 117.116C787.705 122.109 785.376 126.477 783.979 130.846C782.271 135.059 781.029 139.584 780.718 144.109C780.563 146.293 780.563 148.634 781.029 150.818C781.339 153.003 782.116 155.343 783.358 157.372C780.408 153.627 779.476 148.79 779.476 144.109C779.632 139.428 780.874 134.747 782.582 130.378C784.289 126.009 786.463 121.797 787.084 117.116C787.395 114.775 787.239 112.435 786.618 110.25C785.842 107.754 784.911 105.569 784.289 103.385Z" fill="#465978"/>
<path d="M803.697 100.264C804.163 99.64 805.095 99.796 805.561 100.108C806.182 100.42 806.647 100.732 807.113 101.2C808.045 102.137 808.821 103.229 809.442 104.477C810.529 106.973 810.529 109.626 810.374 112.123C810.218 114.619 809.753 116.96 809.753 119.456C809.753 121.797 809.908 124.293 810.218 126.633C810.684 131.47 811.926 136.151 813.168 140.988L817.361 155.187C813.634 146.137 809.908 136.776 808.821 126.79C808.2 121.797 808.511 116.803 809.132 111.967C809.442 109.47 809.442 106.973 808.666 104.633C808.2 103.541 807.734 102.449 806.803 101.512C806.337 101.044 805.871 100.732 805.405 100.42C804.784 100.108 804.163 99.796 803.697 100.264Z" fill="#465978"/>
<path d="M795.468 152.223C797.176 154.251 798.418 156.592 799.35 159.088C800.282 161.585 800.747 164.237 800.903 166.89C800.903 169.542 800.747 172.195 800.437 174.691C800.126 177.188 799.971 179.528 800.282 182.181C799.195 179.84 799.195 177.188 799.195 174.691C799.35 172.195 799.505 169.542 799.35 167.046C799.039 161.741 797.642 156.748 795.468 152.223Z" fill="#465978"/>
<path d="M732.276 85.9092C730.258 84.817 729.482 82.4765 728.861 80.6041C728.239 78.5757 728.084 76.5473 727.774 74.3629C727.774 72.3345 727.618 70.15 727.929 68.1216C728.084 66.0932 728.395 64.0648 729.171 62.0364C729.016 66.0932 729.016 70.15 729.326 74.2068C729.482 76.2352 729.637 78.2637 730.103 80.2921C730.413 82.3205 730.879 84.3489 732.276 85.9092Z" fill="#465978"/>
<path d="M745.008 42.6884C747.492 43.9367 749.511 45.9651 751.374 48.1495C753.237 50.334 754.479 52.8305 755.721 55.327C756.808 57.9795 757.739 60.6321 758.205 63.4406C758.671 66.2492 758.826 69.0578 758.205 71.8663C758.05 66.4052 756.497 60.9441 754.324 56.1071C752.15 50.9581 749.2 46.2771 745.008 42.6884Z" fill="#465978"/>
<path d="M702.311 55.327C700.603 57.6675 699.05 60.0079 698.118 62.5044C697.032 65.001 696.1 67.4975 695.789 70.15C695.168 72.8025 695.013 75.6111 695.013 78.2637C695.013 81.0722 695.479 83.7248 696.1 86.5333C693.616 81.3843 693.305 75.4551 694.237 69.994C695.168 64.3768 697.808 58.9157 702.311 55.327Z" fill="#465978"/>
<path d="M624.834 928.637C644.397 930.821 645.795 930.041 665.668 932.225C667.376 932.381 669.084 931.289 669.395 929.573C688.492 846.408 738.021 523.11 738.642 513.592C740.195 491.436 740.195 468.811 735.537 446.967C725.289 400.157 657.905 431.051 654.179 448.995C651.539 461.322 651.074 468.811 648.745 480.201C644.553 500.017 635.392 519.365 635.082 539.65C633.684 637.169 626.076 867.628 621.729 924.892C621.574 926.764 622.971 928.481 624.834 928.637Z" fill="#E9CDC1"/>
<path d="M832.576 925.828C813.013 928.013 811.771 927.232 791.897 929.417C790.189 929.573 788.482 928.481 788.171 926.764C769.074 842.195 719.545 513.124 718.924 503.606C717.371 480.982 715.974 457.733 722.029 435.888C735.847 387.05 804.318 428.555 809.442 450.087C811.305 457.577 822.484 528.571 822.484 530.288C826.366 633.269 829.626 866.068 835.526 922.083C835.837 923.8 834.439 925.516 832.576 925.828Z" fill="#E9CDC1"/>
<path d="M614.587 312.623C629.803 314.496 643.155 313.56 658.371 310.751C659.924 310.439 661.011 309.035 661.011 307.474C659.613 255.048 651.85 236.48 647.968 230.395C646.882 228.834 644.708 228.522 643.311 229.77C636.013 236.012 615.518 257.856 611.637 309.191C611.637 310.907 612.879 312.311 614.587 312.623Z" fill="#E8D0C3"/>
<path d="M846.861 306.226C831.645 308.098 818.292 307.162 803.076 304.354C801.524 304.042 800.437 302.637 800.437 301.077C801.679 248.65 809.442 230.083 813.324 224.153C814.411 222.593 816.584 222.281 817.982 223.529C825.279 229.77 845.774 251.615 849.655 302.949C849.811 304.51 848.568 306.07 846.861 306.226Z" fill="#E8D0C3"/>
<path d="M645.174 228.99C649.055 223.997 694.392 205.274 694.392 205.274C694.392 205.274 716.595 219.784 733.208 218.692C750.287 217.444 765.503 201.841 766.745 202.465C793.605 214.011 788.637 211.047 815.497 222.593C801.368 298.893 820.466 375.036 801.989 437.605C749.666 443.534 715.508 439.945 662.563 438.073C644.087 400.469 646.416 253.643 645.174 228.99Z" fill="#D5A997"/>
<path d="M801.989 437.449C755.876 444.782 688.337 442.598 662.563 437.917L658.837 427.775C707.124 426.214 778.545 424.654 804.939 428.399L801.989 437.449Z" fill="#E8D0C3"/>
<path d="M662.874 437.605L667.221 438.385L671.568 438.697C674.518 439.009 677.468 438.853 680.263 439.009C686.163 439.165 691.908 439.165 697.808 439.165C709.453 439.009 721.097 439.009 732.742 438.697L767.832 438.229L785.376 438.073C791.276 438.073 797.021 438.073 802.921 438.229C797.176 438.853 791.276 439.165 785.376 439.633L767.832 440.569C756.187 441.194 744.542 441.506 732.742 441.818C721.097 441.818 709.297 441.974 697.653 441.506C691.753 441.35 686.008 441.037 680.108 440.569C677.158 440.257 674.208 440.101 671.413 439.477L667.066 438.697L662.874 437.605Z" fill="white"/>
<path d="M740.195 429.647C739.263 434.016 738.642 438.541 738.176 443.066C737.555 447.591 736.934 451.96 736.313 456.485L733.053 483.322C731.966 492.216 731.034 501.266 730.103 510.16C729.637 514.684 729.326 519.209 729.171 523.578C729.016 525.763 729.016 528.103 729.171 530.288C729.326 532.472 729.326 534.813 730.258 536.841C729.171 534.813 728.705 532.472 728.395 530.288C728.084 528.103 727.929 525.763 727.774 523.422C727.618 518.897 727.618 514.372 727.774 509.847C728.084 500.798 729.016 491.748 729.947 482.698C731.034 473.648 732.276 464.754 733.984 455.86C735.692 447.279 737.245 438.229 740.195 429.647Z" fill="white"/>
<path d="M735.847 433.08C735.382 435.108 733.363 436.357 731.345 435.732C729.326 435.264 728.084 433.236 728.705 431.207C729.171 429.179 731.189 427.931 733.208 428.555C735.226 429.023 736.468 431.051 735.847 433.08Z" fill="white"/>
<path d="M700.137 425.434C701.224 425.278 702.466 425.278 703.863 425.278C704.329 428.555 704.329 431.207 703.863 434.016C703.708 435.42 703.397 436.669 703.397 438.073C703.397 439.477 703.242 440.725 703.397 442.13C701.689 442.598 700.603 442.598 699.361 442.598C698.739 439.009 698.895 436.2 699.205 433.392C699.361 430.583 699.671 427.931 700.137 425.434ZM700.137 425.59C700.292 428.555 700.292 431.363 700.292 434.016C700.292 436.669 699.982 439.165 699.826 441.818L699.205 441.037C700.447 441.194 701.534 441.35 702.776 441.506C702.466 440.569 702.621 439.165 702.776 437.917C702.932 436.513 702.776 435.264 702.776 433.86C702.621 431.051 702.932 428.399 703.242 425.746C702.621 426.058 701.534 425.902 700.137 425.59Z" fill="white"/>
<path d="M761.932 424.966C763.018 424.81 764.261 424.81 765.658 424.81C766.124 428.087 766.124 430.739 765.503 433.548C765.347 434.952 765.037 436.201 765.037 437.605C765.037 439.009 764.882 440.257 765.037 441.662C763.329 442.13 762.242 442.13 761 442.13C760.379 438.541 760.534 435.732 760.845 432.924C761 430.115 761.466 427.307 761.932 424.966ZM762.087 425.122C762.242 428.087 762.242 430.895 762.242 433.548C762.242 436.201 761.932 438.697 761.621 441.35L761 440.725C762.242 440.881 763.329 441.038 764.571 441.194C764.261 440.257 764.416 438.853 764.571 437.449C764.726 436.044 764.571 434.796 764.571 433.392C764.416 430.583 764.726 427.931 765.037 425.278C764.416 425.59 763.329 425.278 762.087 425.122Z" fill="white"/>
<path d="M644.708 498.301C647.037 495.961 649.832 494.556 652.316 492.684C654.8 490.968 657.284 489.251 659.458 487.223C663.961 483.322 667.842 478.953 670.947 473.804C671.879 472.556 672.5 471.308 673.276 470.059C674.053 468.811 674.674 467.407 675.295 466.003L677.158 461.946C677.624 460.541 678.245 459.137 678.866 457.733C681.039 452.116 682.592 446.03 684.611 440.101C684.455 443.222 683.989 446.343 683.368 449.307C682.592 452.272 682.126 455.392 681.039 458.357C679.332 464.442 676.692 470.059 673.432 475.364C670.016 480.67 665.824 485.35 660.7 489.095C658.216 490.968 655.576 492.528 652.782 494.088C649.987 495.649 647.192 496.741 644.553 498.457L644.708 498.301Z" fill="white"/>
<path d="M815.653 487.067C810.839 484.882 806.647 481.606 802.921 478.017C799.195 474.428 795.779 470.371 792.674 466.315C789.568 462.258 786.618 458.045 783.979 453.52L780.097 446.811C779.011 444.47 777.613 442.286 776.682 439.789C783.047 447.903 789.103 456.173 795.313 464.286C798.418 468.343 801.679 472.4 804.939 476.145C808.355 480.045 811.926 483.634 816.118 486.599L815.653 487.067Z" fill="white"/>
<path d="M682.747 210.11C686.008 218.692 687.871 227.742 689.268 236.792C690.511 245.842 691.132 255.048 691.132 264.253C691.287 273.459 690.666 282.509 690.045 291.715C689.268 300.765 688.337 309.815 687.405 318.865C685.387 336.808 683.834 354.596 682.903 372.54C681.971 390.483 681.195 408.583 679.953 426.683C678.4 408.583 677.779 390.483 678.089 372.383C678.245 354.284 679.332 336.184 681.35 318.084C683.213 300.141 685.542 282.041 686.318 263.941C687.095 245.842 686.318 227.742 682.126 210.11H682.747Z" fill="#E8D0C3"/>
<path d="M740.039 218.068C743.455 226.182 745.629 234.763 747.492 243.345C749.045 252.083 749.821 260.821 749.976 269.715C750.287 278.608 749.821 287.346 749.355 296.084C748.734 304.822 747.803 313.403 746.871 322.141C744.853 339.305 742.989 356.312 741.592 373.476L737.866 425.122C736.624 407.803 736.313 390.483 736.779 373.164C737.245 355.844 738.797 338.525 740.816 321.361C742.679 304.198 744.853 286.878 745.163 269.715C745.318 261.133 745.163 252.395 744.232 243.813C743.3 235.232 741.747 226.65 739.418 218.38L740.039 218.068Z" fill="#E8D0C3"/>
<path d="M794.537 214.479C797.797 222.749 799.816 231.643 801.524 240.381C803.076 249.274 803.853 258.324 804.163 267.218C804.629 276.268 804.318 285.162 804.163 294.056C803.697 302.949 803.076 311.843 802.3 320.737L799.661 347.106C798.574 355.844 797.953 364.582 797.176 373.32L793.295 426.683C792.053 409.051 791.742 391.263 792.363 373.476C792.984 355.688 794.847 338.057 796.4 320.425C798.108 302.793 799.505 285.162 799.505 267.374C799.505 258.48 799.195 249.743 798.418 240.849C797.487 232.111 796.089 223.373 793.916 214.635L794.537 214.479Z" fill="#E8D0C3"/>
<path d="M709.918 213.699C711.626 222.437 711.937 231.487 712.713 240.381C713.179 249.274 713.645 258.012 714.732 266.594C715.974 275.176 717.216 283.913 718.768 292.651C720.166 301.389 721.408 310.283 722.184 319.333C722.65 328.383 722.805 337.588 722.184 346.482C721.563 355.532 720.632 364.426 719.234 373.164C716.595 390.795 712.868 408.115 708.832 425.434C710.384 407.803 712.558 390.171 714.421 372.54C716.284 354.908 717.371 337.276 715.974 319.645C714.732 302.013 711.161 284.538 709.763 266.906C708.211 249.118 710.384 231.487 709.142 213.699H709.918Z" fill="#E8D0C3"/>
<path d="M762.397 205.742C763.018 207.926 763.484 210.267 763.95 212.607C764.261 214.947 764.726 217.132 765.037 219.472C765.658 224.153 766.124 228.678 766.434 233.359L767.211 247.09C767.366 251.615 767.521 256.14 767.832 260.665C768.453 269.559 769.539 278.452 771.092 287.502C772.334 296.552 774.042 305.602 774.974 314.964C775.905 324.326 776.371 333.844 776.061 343.206C775.595 352.567 774.974 361.929 773.576 370.979C771.092 389.391 767.211 407.335 763.018 425.278C764.571 407.023 767.055 388.767 768.763 370.511C770.471 352.255 771.092 333.844 768.918 315.588C766.9 297.332 763.329 279.233 762.863 260.821C762.553 242.409 764.105 223.997 761.776 205.742H762.397Z" fill="#E8D0C3"/>
<path d="M654.179 223.685C655.421 232.111 655.576 240.693 656.508 249.118C656.974 257.544 658.061 265.658 659.458 273.927L663.805 298.893C664.426 303.105 665.047 307.318 665.513 311.687C665.979 316.056 666.289 320.269 666.445 324.482L667.221 349.915C667.376 358.341 667.532 366.922 667.532 375.348C667.532 383.774 667.376 392.356 667.221 400.781C666.755 409.363 666.6 417.789 665.824 426.214C665.203 426.214 660.389 324.794 660.389 324.794C659.924 307.942 656.508 291.247 654.645 274.396C653.713 265.97 653.092 257.544 653.247 248.962C653.247 240.537 653.713 232.111 653.558 223.529L654.179 223.685Z" fill="#E8D0C3"/>
<path d="M533.065 207.243C538.207 210.293 537.445 227.643 537.636 233.744C537.826 240.226 532.684 245.755 526.78 248.043C520.876 250.331 514.21 249.95 507.734 249.569C489.832 248.043 472.119 245.565 454.598 241.752C446.598 240.036 433.267 237.939 425.268 239.845C439.933 228.024 436.314 217.348 446.979 204.002C460.311 187.605 461.263 163.011 453.455 146.996C492.498 155.194 526.208 126.405 520.114 157.291C515.353 181.123 511.353 194.278 533.065 207.243Z" fill="#FF7E64"/>
<path d="M433.267 99.141C433.267 147.186 457.455 186.08 487.165 186.08C516.876 186.08 541.064 147.186 541.064 99.141C541.064 51.0957 516.876 12.202 487.165 12.202C457.455 12.3926 433.267 51.2864 433.267 99.141Z" fill="#FFA18A"/>
<path d="M619.341 1091.5C594.963 1094.36 593.439 1093.22 569.442 1095.89C566.966 1096.08 564.68 1094.55 564.109 1092.08C540.683 989.694 480.118 595.799 479.166 584.36C477.262 557.287 477.262 529.642 482.975 502.95C495.545 445.753 578.203 483.503 582.773 505.429C586.011 520.49 586.583 529.642 589.439 543.56C594.582 567.773 604.866 591.414 606.199 616.2C613.246 750.231 621.436 1015.05 623.34 1087.12C623.721 1089.6 621.626 1091.12 619.341 1091.5Z" fill="#495B7D"/>
<path d="M364.132 1093.41C388.51 1093.6 390.795 1093.79 414.793 1092.65C416.888 1092.46 418.792 1090.93 419.364 1088.84C442.599 987.216 502.783 581.691 503.544 570.251C505.449 542.988 507.163 515.152 499.735 488.841C482.785 430.119 398.794 480.071 392.509 505.81C390.224 514.961 376.511 599.994 376.511 602.091C371.94 758.429 362.227 1020.01 359.561 1089.22C359.37 1091.69 361.846 1093.41 364.132 1093.41Z" fill="#495B7D"/>
<path d="M583.916 430.882C589.63 499.9 624.864 564.341 647.528 629.736C648.099 631.071 649.433 632.024 650.956 631.833C666.954 630.117 666.764 629.736 682 623.635C683.333 623.063 684.286 621.538 683.905 620.203C678.953 589.508 630.768 292.085 608.104 243.849C593.439 283.315 578.203 360.721 583.916 430.882Z" fill="#222E44"/>
<path d="M388.51 424.781C382.796 493.799 348.514 558.05 325.85 623.444C325.279 624.779 323.946 625.732 322.422 625.542C306.043 623.826 305.091 623.635 289.664 617.534C288.331 616.962 287.378 615.437 287.759 613.912C292.902 583.216 343.563 286.556 366.227 238.32C380.892 277.786 394.223 354.429 388.51 424.781Z" fill="#222E44"/>
<path d="M608.104 243.849C603.343 237.748 533.446 207.815 533.446 207.815C533.446 207.815 506.211 225.546 485.832 224.211C464.882 222.686 446.218 203.621 444.694 204.383C411.745 218.492 399.175 224.402 366.417 238.511C383.748 331.741 374.416 406.097 401.651 491.511C465.834 498.756 507.734 494.561 572.679 492.083C584.868 439.462 606.58 273.972 608.104 243.849Z" fill="white"/>
<path d="M401.461 491.32C458.026 500.281 540.683 497.612 572.489 491.892L575.346 478.546C516.114 476.64 430.219 475.686 397.842 480.262L401.461 491.32Z" fill="#495B7D"/>
<path d="M482.404 485.982C482.594 487.126 483.356 488.27 484.308 489.223C485.261 490.176 486.784 490.939 488.498 490.939C490.213 490.939 492.117 490.176 493.45 488.651C494.783 487.126 495.164 484.838 494.783 482.741C494.212 480.643 492.688 478.927 490.784 478.165C488.879 477.402 486.784 477.593 485.261 478.546C483.737 479.309 482.785 480.643 482.404 481.978C482.213 483.503 482.023 484.838 482.404 485.982ZM482.785 485.982C482.213 483.694 483.737 481.215 486.023 480.643C488.308 480.071 490.784 481.597 491.165 483.694C491.736 485.791 490.403 488.27 488.118 488.841C486.023 489.604 483.356 488.27 482.785 485.982Z" fill="white"/>
<path d="M526.589 476.64C525.447 476.258 523.733 475.877 522.018 475.686L520.876 475.496L520.685 477.021C520.114 480.453 519.923 483.694 519.733 487.126C519.543 490.557 519.733 493.799 519.923 497.04L520.114 500.471L523.542 500.09H527.923L531.351 499.709L530.97 496.468C530.398 489.032 528.494 481.597 526.589 476.64ZM526.399 476.83L527.351 496.658C527.732 496.277 523.352 496.468 523.352 496.468C523.733 496.849 522.399 476.83 522.399 476.83C522.018 477.212 526.399 476.83 526.399 476.83Z" fill="white"/>
<path d="M450.788 476.068C449.646 475.686 447.932 475.305 446.218 475.114L445.265 474.924L444.884 476.64C444.313 480.071 444.123 483.312 443.932 486.744C443.932 490.176 443.932 493.417 444.123 496.658L444.313 500.09L447.741 499.709L452.122 499.328L455.55 498.946L455.169 495.705C454.598 488.46 452.693 481.025 450.788 476.068ZM450.598 476.258L451.741 496.086C452.122 495.705 447.741 495.896 447.741 495.896C448.122 496.277 446.598 476.258 446.598 476.258C446.218 476.64 450.598 476.258 450.598 476.258Z" fill="white"/>
<path d="M447.551 31.6489C444.123 25.3572 435.552 36.0339 433.457 40.2284C415.745 74.1651 431.553 104.67 431.553 104.67C432.124 106.195 432.886 107.53 433.457 109.246C436.124 103.335 436.505 97.6157 435.362 91.3241C433.648 81.982 436.695 68.8267 439.361 59.8659C440.695 55.0995 450.408 36.7966 447.551 31.6489Z" fill="#222C44"/>
<path d="M503.164 16.3964C510.21 6.29164 529.065 23.26 534.017 29.7423C573.441 83.3165 540.112 131.934 540.112 132.124C538.779 134.412 537.636 136.7 536.112 139.179C530.208 130.027 525.637 118.207 525.256 108.102C524.495 92.6587 518.59 77.2156 512.496 63.107C509.258 55.6715 497.45 24.5946 503.164 16.3964Z" fill="#222C44"/>
<path d="M428.125 37.5592C425.839 23.832 435.743 -8.00754 444.504 1.90656C460.883 20.5908 493.45 1.14393 510.591 15.6338C519.733 23.26 518.4 31.4582 507.735 40.8003C487.737 58.15 433.648 71.3052 428.125 37.5592Z" fill="#222C44"/>
<path d="M434.981 59.4846C434.41 59.1033 433.648 59.4846 433.457 59.8659C433.076 60.2472 432.886 60.6285 432.695 61.2005C432.505 61.5818 432.505 62.3444 432.505 62.9164C432.505 63.4884 432.695 63.8697 432.695 64.251C432.886 65.0136 432.886 65.3949 432.695 65.3949C432.695 65.3949 432.505 65.7762 432.124 66.1575C431.934 66.7295 431.553 67.1108 431.172 67.6828C430.791 68.2547 430.22 69.0174 430.029 69.78C429.267 71.3052 429.077 73.0211 429.458 74.737C430.22 73.5931 430.981 72.2585 431.934 71.1146C432.695 69.9706 433.838 68.8267 434.6 67.6828C434.981 67.1108 435.362 66.3482 435.362 65.3949C435.362 64.6323 434.981 63.8697 434.6 63.107C434.219 62.5351 434.029 61.7725 434.029 61.2005C434.029 60.6285 434.219 59.6752 434.981 59.6752V59.4846Z" fill="#445675"/>
<path d="M431.743 95.7092C432.315 94.1839 432.505 92.6587 432.886 91.5148C433.076 90.9428 433.076 90.3708 433.267 90.1802C433.457 89.7989 433.648 89.6082 434.029 88.8456C434.41 88.2736 434.79 87.3203 434.981 86.3671C435.171 85.4138 435.171 84.4605 434.981 83.6979C434.79 81.982 433.838 80.6474 432.695 79.3128C432.695 82.1726 433.076 85.0325 431.553 87.511C430.791 88.6549 430.41 90.3708 430.6 91.7054C430.791 93.2307 431.172 94.5652 431.553 95.8998L431.743 95.7092Z" fill="#445675"/>
<path d="M529.637 74.5464C531.541 72.8305 531.732 70.7333 530.97 68.8267C530.208 67.1108 528.685 65.3949 526.209 65.3949C526.97 66.9202 527.923 68.4454 528.304 69.9707C528.875 71.3052 529.256 73.0211 529.256 74.5464H529.637Z" fill="#445675"/>
<path d="M511.544 23.6413C514.781 24.5946 517.448 26.3105 519.352 28.9797C521.257 31.4582 522.209 34.1274 522.019 37.1779C522.019 40.2284 521.828 43.8508 523.161 47.6639C524.685 51.477 527.351 53.9556 529.446 56.4341C533.636 61.2005 536.684 66.7295 538.779 72.8305C539.921 75.881 540.683 78.9315 541.064 82.1726C541.635 85.4138 541.635 88.6549 541.635 92.0867C544.111 78.9315 540.302 64.823 531.541 54.7182C529.446 52.2397 526.97 49.7611 525.637 46.9013C524.304 43.8508 524.495 40.419 524.304 37.1779C524.114 30.1236 518.4 24.0226 511.544 23.4507V23.6413Z" fill="#445675"/>
<path d="M511.353 35.6526C512.496 36.2246 512.305 37.3685 511.734 38.1311C511.544 38.5125 511.353 38.7031 510.972 39.0844L509.83 40.0377C508.877 40.8003 507.544 41.9443 506.973 44.2321C506.592 46.52 507.544 48.2359 508.115 49.3798C508.877 50.7144 509.83 51.8584 510.782 52.8116L513.258 55.2902C514.972 57.0061 516.686 58.722 518.4 60.8192C517.829 58.3407 516.686 56.0528 515.162 53.9556C513.639 51.8584 511.925 50.1425 510.591 48.0452C510.02 46.9013 509.449 45.7574 509.639 44.6134C509.83 43.4695 510.782 42.5162 511.544 41.563C512.305 40.6097 513.258 39.6564 513.448 38.3218C513.639 37.1779 513.067 35.2713 511.544 35.2713L511.353 35.6526Z" fill="#445675"/>
<path d="M534.017 109.246C535.541 107.339 537.065 105.433 537.445 102.763C537.826 101.429 537.826 99.9036 537.445 98.3784C537.065 96.8531 536.112 95.7092 535.35 94.7559C534.017 93.04 533.255 91.8961 532.875 89.7989C532.303 87.8923 532.113 85.6044 531.541 83.1259C530.78 85.4138 530.399 87.7016 530.589 89.9895C530.589 92.2774 531.732 94.5653 533.065 96.4718C534.589 98.1877 535.541 100.285 535.16 102.573C535.16 104.861 534.398 106.958 533.636 109.055L534.017 109.246Z" fill="#445675"/>
<path d="M456.883 51.0957C454.407 52.049 452.122 52.049 450.027 51.8584C447.932 51.6677 445.837 51.0957 444.123 50.1425C440.314 48.2359 437.457 44.9948 434.41 40.8003C435.362 45.7574 438.219 50.3331 442.98 52.8116C447.551 55.0995 453.455 54.9089 457.264 51.477L456.883 51.0957Z" fill="#445675"/>
<path d="M435.362 17.159C436.695 14.1085 437.266 12.202 438.219 10.1048L440.885 3.05049C438.409 4.38508 436.695 6.67295 435.552 9.15148C434.6 11.8207 434.41 14.6805 435.171 17.3497L435.362 17.159Z" fill="#445675"/>
<path d="M497.26 15.0618C498.783 15.2525 499.926 15.8244 501.069 16.587C502.402 17.159 503.545 17.731 504.497 18.4936C505.64 19.2562 506.782 20.0189 507.544 20.7815C507.925 21.1628 508.306 21.5441 508.115 21.1628C508.115 21.7348 508.115 22.1161 508.306 22.688C508.306 24.9759 507.925 27.4544 506.782 29.5516C505.64 31.6489 503.925 33.5554 501.45 35.0807C504.306 34.6993 506.973 33.1741 508.687 30.6956C510.401 28.4077 511.163 25.5479 511.163 22.4974C511.163 21.7348 510.972 20.9721 510.782 20.4002C510.401 19.6375 509.83 19.0656 509.258 18.6843C508.115 17.731 506.782 17.159 505.449 16.587C502.783 15.4431 500.116 14.2992 497.069 14.8711L497.26 15.0618Z" fill="#445675"/>
<path d="M484.69 17.731C481.261 18.6843 478.214 19.4469 475.167 19.8282C472.12 20.2095 469.263 20.0189 466.025 19.6375C462.787 19.2562 459.55 19.0656 456.502 18.6843C453.455 18.1123 450.598 17.3497 447.932 15.0618C449.455 18.1123 452.693 20.0189 455.74 20.7815C458.978 21.7348 462.216 22.1161 465.644 22.4974C468.882 22.8787 472.31 22.8787 475.548 22.1161C478.785 21.3534 481.833 19.6375 484.69 17.9216V17.731Z" fill="#445675"/>
<path d="M489.26 36.9872C487.737 38.8938 486.404 40.6097 484.88 41.9443C483.356 43.2789 482.023 44.4228 480.309 45.3761C476.881 47.4733 472.5 49.1892 469.263 53.0023C473.453 51.2864 477.833 50.1425 481.833 47.8546C483.737 46.7107 485.451 45.1854 486.785 43.2789C488.118 41.3723 488.88 39.2751 489.451 37.1779L489.26 36.9872Z" fill="#445675"/>
<path d="M439.933 25.3572C438.79 27.8357 439.171 31.0769 441.075 33.5554C442.98 36.0339 446.027 37.3685 448.884 37.7498C451.741 38.1312 454.217 37.7498 456.693 37.3685C459.169 36.9872 461.454 36.4152 463.93 36.0339C459.169 34.318 454.026 35.6526 449.075 34.89C446.599 34.6993 444.313 33.7461 442.599 32.0302C440.885 30.3143 439.933 27.8357 440.123 25.3572H439.933Z" fill="#445675"/>
<path d="M439.933 283.505C434.981 285.031 430.41 286.746 425.648 288.462L427.743 290.56C430.219 286.556 433.076 282.361 436.504 279.692C438.218 278.358 440.123 277.595 441.456 277.786C442.218 277.786 442.789 278.167 443.551 278.548C444.313 279.12 445.075 279.692 445.646 280.264C447.932 283.124 447.741 287.318 445.837 290.941C445.075 292.275 443.551 293.801 441.837 294.754C440.123 295.898 438.218 296.661 436.123 297.042C432.124 297.804 427.934 296.851 424.887 294.182C424.125 293.61 423.553 292.657 422.792 291.894C422.411 290.941 421.649 290.178 421.458 289.416C420.697 287.7 420.506 285.602 420.887 283.696C421.649 279.692 425.077 276.07 428.886 273.782C432.886 271.303 437.647 270.159 442.789 270.35C437.838 269.206 432.695 269.969 428.124 272.066C425.839 273.21 423.744 274.544 422.03 276.451C420.316 278.167 418.792 280.455 418.221 282.933C416.507 287.89 418.792 293.419 422.601 296.661C426.22 300.283 431.743 301.618 436.695 300.664C441.647 299.711 446.598 297.042 449.074 292.466C450.217 290.178 450.788 287.7 450.788 285.031C450.788 282.552 449.836 279.883 448.122 277.976C446.408 276.07 444.123 274.544 441.456 274.354C438.79 274.354 436.504 275.688 434.6 277.404C430.791 280.836 428.124 285.031 425.839 289.606C426.22 289.988 439.933 283.505 439.933 283.505Z" fill="#495B7D"/>
<path d="M234.817 244.024C242.178 243.305 255.283 233.594 254.565 224.242L251.513 181.081C250.795 170.65 241.819 162.737 231.227 163.456L152.775 168.852C142.542 169.751 134.822 178.743 135.54 189.173L138.592 232.335C139.31 241.866 147.21 249.06 156.545 249.06C157.083 249.06 157.622 248.52 157.622 247.981C156.724 240.787 157.622 243.125 157.622 235.032C158.34 240.607 158.34 238.989 160.494 247.261C160.853 248.52 161.751 249.419 163.008 249.419C165.88 249.599 169.291 247.801 172.522 247.981C192.45 249.959 221.353 247.621 231.586 243.844C231.945 243.665 232.304 243.305 232.304 242.945V237.73C235.894 245.823 234.817 244.024 234.817 244.024Z" fill="#394C6F"/>
<path d="M149.902 204.28C150.082 207.517 152.057 209.315 154.211 211.473C155.288 212.552 156.365 213.631 157.622 215.07C158.699 216.509 159.597 218.487 160.135 220.285C161.033 224.062 160.674 227.299 160.315 230.356C159.956 233.234 159.597 236.291 159.058 239.708C157.981 236.651 157.622 233.594 157.442 230.356C157.263 227.299 157.263 224.062 156.545 221.005C155.827 217.948 153.852 215.61 151.877 213.092C150.082 210.574 148.287 207.337 149.543 204.1L149.902 204.28Z" fill="#232C44"/>
<path d="M171.086 234.673C171.266 235.392 171.266 235.931 171.445 236.471C171.625 237.01 171.625 237.55 171.984 237.91C172.343 238.449 172.522 238.989 172.702 239.348C173.061 239.888 173.599 240.607 173.599 240.607C173.959 241.327 174.138 241.866 174.497 242.406C174.856 243.125 175.036 243.844 175.036 244.564C175.036 245.283 174.856 246.002 174.677 246.722C174.318 247.441 173.959 247.981 173.42 248.52C173.599 247.261 173.779 246.002 173.42 244.923C173.24 243.665 172.343 242.765 171.804 241.686C170.368 239.708 170.009 236.831 170.907 234.673H171.086Z" fill="#F2D5AD"/>
<path d="M231.406 223.702C231.945 224.602 232.483 224.781 233.022 225.141C233.56 225.501 234.099 225.86 234.638 226.22C235.715 227.119 236.971 228.918 237.33 231.076C237.51 232.155 237.33 233.414 236.971 234.493C236.433 235.572 236.074 236.291 235.356 236.831C234.279 238.09 233.201 238.09 232.124 239.708C231.406 238.269 232.124 236.831 232.842 235.572C233.56 234.313 233.919 233.054 233.74 231.615C233.56 230.356 232.842 229.098 232.124 227.839C231.406 226.58 230.509 225.141 231.047 223.702H231.406Z" fill="#232C44"/>
<path d="M153.852 260.749C149.005 263.627 149.723 279.992 149.543 285.747C149.364 291.861 154.211 297.077 159.776 299.235C165.341 301.393 171.625 301.033 177.729 300.673C194.604 299.235 211.3 296.897 227.816 293.3C235.356 291.681 247.922 289.703 255.462 291.502C241.639 280.352 245.05 270.281 234.997 257.692C222.43 242.226 221.532 219.027 228.893 203.92C192.09 211.833 160.135 184.677 166.06 213.811C170.548 236.111 174.318 248.52 153.852 260.749Z" fill="#FF7E64"/>
<path d="M197.117 240.787C225.176 240.787 247.922 204.072 247.922 158.781C247.922 113.49 225.176 76.7742 197.117 76.7742C169.058 76.7742 146.312 113.49 146.312 158.781C146.312 204.072 169.058 240.787 197.117 240.787Z" fill="#FFA18A"/>
<path d="M195.86 503.891C177.01 451.918 113.998 491.482 112.202 512.703C105.38 597.767 101.97 636.073 104.662 719.158C104.842 721.856 106.637 724.373 109.33 725.093C142.003 734.085 168.214 731.387 200.708 727.611C203.939 727.251 206.273 724.553 206.452 721.316C210.043 595.429 213.454 552.627 195.86 503.891Z" fill="#222E44"/>
<path d="M293.701 505.51C287.238 481.231 206.991 435.912 192.27 491.662C180.242 537.341 194.783 599.565 216.865 721.496C217.403 724.553 219.917 726.711 222.969 726.711C254.744 727.79 282.75 729.409 315.782 715.381C318.296 714.302 319.732 711.785 319.552 709.087C317.398 679.054 315.962 589.494 293.701 505.51Z" fill="#222E44"/>
<path d="M101.431 287.365C105.919 281.61 153.493 261.109 153.493 261.109C153.493 261.109 179.165 277.834 198.374 276.575C218.121 275.136 235.715 257.152 237.151 257.872C268.209 271.18 257.976 266.864 289.033 280.172C272.697 368.113 303.395 406.239 277.723 486.806C217.224 493.64 180.062 499.755 118.845 497.417C107.176 447.961 102.867 315.78 101.431 287.365Z" fill="#D47B53"/>
<path d="M278.262 487.706C225.302 498.496 149.005 501.553 118.845 497.417L114.536 483.03C170.189 478.714 250.436 474.218 281.134 477.095L278.262 487.706Z" fill="#222E44"/>
<path d="M275.569 346.532C275.569 352.827 278.262 358.941 282.93 363.077C301.241 379.802 317.398 391.132 314.167 398.326C314.167 398.326 294.778 464.147 281.673 498.136C280.955 500.115 281.673 502.273 283.468 503.352C289.213 507.128 293.521 509.286 298.907 511.984C301.061 513.063 303.934 512.164 304.831 509.826C350.789 402.282 376.102 403.721 362.459 376.386C322.604 297.436 303.754 288.984 291.547 280.711C278.8 272.259 275.749 322.794 275.569 346.532Z" fill="#B66F4F"/>
<path d="M231.406 476.196C232.663 476.016 234.099 475.836 235.715 475.836C236.433 479.613 236.433 482.67 236.074 485.907C235.894 487.526 235.715 488.964 235.715 490.583C235.715 492.202 235.715 493.64 235.894 495.259C233.919 495.798 232.663 495.798 231.227 495.978C230.509 492.022 230.329 488.605 230.688 485.368C230.688 482.131 230.868 479.073 231.406 476.196ZM231.406 476.376C231.765 479.793 231.765 483.03 231.945 486.087C232.124 489.144 231.765 492.022 231.586 495.079L230.868 494.36C232.304 494.539 233.56 494.539 234.997 494.719C234.638 493.64 234.817 492.022 234.817 490.583C234.817 488.964 234.817 487.526 234.638 485.907C234.279 482.67 234.638 479.613 234.817 476.556C234.279 476.915 233.022 476.556 231.406 476.376Z" fill="white"/>
<path d="M17.9524 406.958C15.439 431.776 90.48 496.158 108.612 510.185C110.587 511.624 113.279 511.264 114.716 509.466C118.665 504.61 122.076 501.194 126.026 496.158C127.282 494.719 127.282 492.561 126.205 490.943C99.8152 452.457 80.2471 426.381 73.4252 417.389C71.989 415.59 72.3481 412.893 74.1433 411.454C83.4786 403.721 109.689 378.184 112.561 334.663C113.279 323.693 112.202 302.472 105.201 291.502C103.765 289.164 100.354 288.804 98.379 290.782C79.529 309.665 19.5681 391.672 17.9524 406.958Z" fill="#B66F4F"/>
<path d="M164.623 138.639C166.239 133.064 171.086 118.137 177.01 111.663C175.215 121.734 172.522 121.914 172.702 142.235C172.702 143.674 173.779 144.753 175.215 144.933C185.807 145.652 196.22 141.876 206.632 140.257C208.068 140.077 209.145 138.639 208.966 137.2C208.427 133.423 207.709 126.41 208.427 121.734C209.863 126.59 211.659 131.805 212.556 134.502C212.915 135.761 214.172 136.481 215.429 136.301C227.277 134.862 237.689 134.862 243.255 131.805C249.538 128.388 239.126 104.469 232.124 94.7581C225.123 85.0468 198.912 79.6516 186.705 80.371C172.522 81.0903 161.93 86.8452 152.954 97.2758C145.414 106.088 136.259 125.69 143.978 134.682C146.491 137.56 152.954 139.538 161.571 140.437C163.008 140.617 164.264 139.898 164.623 138.639Z" fill="#2D3D56"/>
<path d="M166.419 136.66C168.034 131.265 172.881 115.979 178.985 109.325C177.19 119.396 174.318 119.576 174.856 140.257C174.856 141.516 175.754 142.415 177.01 142.595C187.782 143.494 198.374 139.538 209.145 137.919C210.402 137.74 211.299 136.66 211.12 135.402C210.581 131.805 209.863 124.431 210.581 119.396C212.197 124.431 213.813 129.827 214.89 132.524C215.249 133.603 216.326 134.143 217.403 134.143C229.252 132.704 240.023 132.704 245.589 129.647C251.872 126.23 241.459 102.311 234.458 92.6C227.457 83.0685 201.246 77.6734 189.039 78.3927C174.497 78.9323 163.905 84.5073 154.749 95.1177C147.389 103.75 138.233 123.532 145.773 132.344C148.287 135.402 155.109 137.2 163.905 138.279C164.982 138.459 166.059 137.74 166.419 136.66Z" fill="#232C44"/>
<path d="M252.051 244.923C255.103 244.384 259.232 243.485 265.157 242.046C265.516 242.046 265.875 241.686 266.234 241.506C270.542 237.01 271.44 230.356 273.774 223.702C274.133 222.983 275.21 223.163 275.21 224.062C274.851 228.738 274.671 232.515 275.21 237.55C275.389 238.629 276.287 239.528 277.544 239.169C282.75 237.91 288.674 236.651 295.137 235.212C296.035 235.032 296.573 234.313 296.573 233.414C296.214 172.988 285.084 105.728 232.663 77.1339C152.057 33.6129 109.33 126.05 93.7114 194.209C83.4785 238.989 97.6609 273.518 100.892 280.531C101.251 281.251 102.149 281.79 102.867 281.61C104.124 281.431 105.919 280.891 108.253 280.352C109.15 280.172 109.869 279.093 109.689 278.194C108.253 272.439 105.739 269.561 105.919 263.806C106.637 267.943 111.305 269.921 114.536 276.935C114.895 277.834 115.793 278.194 116.69 278.014C119.204 277.294 122.076 276.395 124.769 275.496C125.667 275.136 126.205 274.417 126.026 273.518C125.487 269.381 125.128 268.662 123.512 263.986C125.846 266.324 127.462 268.662 128.18 272.259C128.359 273.338 129.616 273.877 130.693 273.518C136.438 271.54 142.183 269.022 147.209 266.324C147.928 265.965 148.287 265.245 148.107 264.346C147.209 257.872 146.312 256.973 141.824 251.937C144.337 253.735 145.773 255.354 151.339 261.648C152.057 262.368 153.134 262.548 153.852 262.008C155.647 260.749 157.263 259.31 158.52 257.872C159.058 257.332 159.058 256.433 158.879 255.894C143.619 223.702 150.082 187.375 148.287 149.609C147.389 129.107 155.109 108.246 167.855 92.6C176.651 81.8097 194.963 74.796 208.966 83.4282C221.173 90.9815 235.356 92.4202 239.664 122.094C249.359 187.555 238.408 231.256 236.253 239.348C236.074 240.248 236.433 240.967 237.151 241.506C240.562 243.485 242.178 244.744 244.511 245.283C245.05 245.463 245.589 245.283 245.948 244.923C249.538 242.046 248.461 233.773 250.436 231.076C250.974 233.414 250.436 238.989 249.718 242.585C249.718 244.024 250.795 245.283 252.051 244.923Z" fill="#2D3D56"/>
<path d="M256.36 249.419C259.412 248.88 263.361 247.981 268.568 246.902C269.106 246.722 269.645 246.542 270.004 246.182C274.492 241.506 275.39 234.852 277.903 228.198C278.262 227.479 279.339 227.659 279.339 228.558C278.98 233.054 278.8 236.651 279.16 241.147C279.339 242.945 280.955 244.204 282.75 243.844C287.777 242.765 293.342 241.506 299.625 240.248C301.061 239.888 301.959 238.809 301.959 237.37C301.42 175.506 289.572 107.167 234.279 77.8532C149.005 32.7137 103.765 127.669 87.2485 197.446C76.6566 242.046 90.6595 276.755 94.609 285.387C95.1476 286.646 96.5838 287.365 97.8404 287.006C98.9176 286.826 100.174 286.466 101.79 286.106C103.406 285.747 104.483 283.948 103.944 282.33C102.508 277.294 100.174 274.417 100.354 268.842C101.072 272.978 105.919 275.136 109.33 281.79C109.869 283.049 111.305 283.589 112.561 283.229C114.895 282.689 117.229 281.97 119.742 281.071C121.179 280.711 121.897 279.273 121.717 277.834C121.179 274.237 120.64 273.518 119.204 268.842C121.538 271 122.974 273.158 123.871 276.215C124.41 277.834 126.026 278.913 127.641 278.373C133.027 276.395 138.592 274.237 143.439 271.719C144.517 271.18 145.055 269.921 144.876 268.662C143.978 262.727 142.721 261.648 138.413 256.793C141.106 258.591 142.542 260.03 148.107 266.144C149.005 267.223 150.8 267.403 151.877 266.504C153.313 265.425 154.57 264.346 155.827 263.267C156.724 262.368 156.904 261.109 156.365 260.03C140.208 227.119 147.03 190.073 145.235 151.587C144.158 130.546 152.416 109.145 166.06 93.1395C175.395 82.1693 194.783 74.9758 209.684 83.9677C222.61 91.7008 237.69 93.3193 242.178 123.532C252.231 188.814 241.46 232.874 238.767 243.125C238.408 244.384 238.946 245.823 240.203 246.362C243.075 247.981 244.691 249.06 246.666 249.599C247.743 249.959 249 249.599 249.718 248.88C252.77 245.463 251.692 238.09 253.847 235.392C254.385 237.55 254.026 242.406 253.308 246.002C252.77 247.981 254.385 249.779 256.36 249.419Z" fill="#232C44"/>
<path d="M148.107 134.143C148.825 128.388 150.62 122.633 153.134 117.238C155.647 111.843 158.879 106.807 163.008 102.491C166.957 97.9952 171.804 94.2186 177.19 91.521C182.396 88.8234 188.32 86.8452 194.604 87.025C200.528 87.3847 206.452 88.2839 212.197 90.4419C217.762 92.6 223.148 96.0169 226.918 100.693C234.279 109.865 240.562 120.115 243.614 131.445C241.639 125.87 238.767 120.835 235.715 115.799C232.663 110.944 229.252 106.088 225.302 101.772C217.583 93.1395 205.914 89.7226 194.424 89.3629C188.679 89.3629 183.114 91.1613 178.088 93.679C172.881 96.1968 168.393 99.7936 164.264 103.93C156.365 112.202 150.8 122.813 148.107 134.143Z" fill="#394C6F"/>
<path d="M189.039 65.9839C190.654 67.0629 191.911 68.8613 192.629 70.6597C193.527 72.4581 193.886 74.4363 194.245 76.2347C194.604 80.0113 194.424 83.9677 192.809 87.5645C192.27 83.7879 191.911 80.1911 191.372 76.5944C191.193 74.796 190.834 72.9976 190.475 71.1992C190.116 69.5806 189.757 67.7823 189.039 65.9839Z" fill="#394C6F"/>
<path d="M173.959 78.0331C175.395 75.5153 178.267 74.0766 181.14 73.5371C184.012 72.9976 186.884 73.1774 189.577 73.3573L194.604 73.8968L189.936 75.875C183.114 78.7524 176.651 82.529 170.009 86.4855C175.036 80.5508 181.858 76.2347 189.039 73.3573L189.398 75.875C186.525 75.5153 184.012 75.1556 181.319 75.3355C178.806 75.5153 176.113 76.2347 173.959 78.0331Z" fill="#394C6F"/>
<path d="M211.659 77.8532C209.504 76.0548 206.811 75.5153 204.119 75.5153C201.426 75.5153 198.912 75.875 196.22 76.4145L196.579 73.8968C203.939 76.5944 210.761 80.7306 215.967 86.4855C209.145 82.7089 202.682 79.1121 195.681 76.4145L190.834 74.2565L195.86 73.7169C198.553 73.3573 201.426 73.1774 204.298 73.5371C207.17 74.0766 210.043 75.5153 211.659 77.8532Z" fill="#394C6F"/>
<path d="M131.95 107.706C126.744 112.382 123.153 118.497 121.358 124.971C120.64 128.208 120.101 131.625 119.383 135.042C118.845 138.639 117.588 142.235 115.613 145.293C113.639 148.35 111.664 151.048 110.048 153.925C108.432 156.802 107.176 160.04 106.099 163.277C104.124 169.931 103.047 176.765 101.79 183.598C101.97 176.585 102.508 169.751 104.124 162.737C105.021 159.32 106.099 155.903 107.714 152.666C109.33 149.429 111.484 146.552 113.28 143.674C117.05 138.099 117.229 131.085 119.383 124.252C121.717 117.598 126.205 111.483 131.95 107.706Z" fill="#394C6F"/>
<path d="M128.539 148.17C129.257 151.407 128.539 155.004 127.462 158.241C126.205 161.298 124.769 164.356 123.512 167.413C122.435 170.47 121.358 173.348 121.358 176.585C121.179 179.642 121.717 182.879 122.435 186.116C123.692 192.77 124.59 199.604 124.23 206.258C124.051 213.092 123.333 219.746 122.435 226.22C122.256 219.566 122.435 212.912 122.256 206.258C121.897 199.604 121.179 193.31 119.742 186.656C119.024 183.419 118.486 180.002 118.845 176.405C119.024 172.808 120.281 169.391 121.717 166.514C123.153 163.456 124.949 160.579 126.385 157.702C127.641 154.644 128.539 151.407 128.539 148.17Z" fill="#394C6F"/>
<path d="M105.201 206.258C104.483 211.473 103.585 216.689 104.842 221.544C105.38 223.882 106.637 226.04 108.073 228.198C109.51 230.536 110.407 233.234 110.946 235.931C111.843 241.327 111.305 246.722 110.946 251.937C110.587 257.152 110.766 262.368 113.1 267.044C111.484 265.065 110.407 262.368 109.689 259.85C109.15 257.152 108.971 254.455 108.791 251.937C108.612 246.722 109.15 241.327 108.253 236.471C108.073 234.133 107.355 231.795 105.919 229.637C104.842 227.299 103.226 224.781 102.867 222.084C101.97 216.509 103.406 211.114 105.201 206.258Z" fill="#394C6F"/>
<path d="M240.023 97.2758C242.357 97.8153 244.691 97.9952 246.845 99.4339C248.82 100.693 250.436 102.671 251.692 104.829C254.206 109.145 254.744 114.001 255.103 118.677C255.283 123.352 255.642 127.848 256.719 132.165C257.796 136.481 259.591 140.797 261.925 144.753C258.694 141.336 256.36 137.2 254.744 132.704C253.129 128.208 252.77 123.352 252.41 118.856C252.231 114.36 251.692 109.865 249.897 105.728C249 103.75 247.743 101.952 246.127 100.513C244.332 98.8944 241.998 98.3548 240.023 97.2758Z" fill="#394C6F"/>
<path d="M254.026 159.86C255.283 162.377 256.36 164.715 257.437 167.233C258.335 169.931 258.694 172.808 258.335 175.506C257.796 181.26 255.283 186.296 253.488 191.152C251.513 196.187 250.077 201.223 249.718 206.438C249.359 211.653 250.256 217.048 252.949 221.724C249.359 217.588 247.743 211.833 247.743 206.258C247.743 200.683 249.179 195.108 251.154 190.073C253.129 185.037 255.642 180.181 256.54 175.146C257.617 170.29 255.462 165.075 254.026 159.86Z" fill="#394C6F"/>
<path d="M276.646 156.263C277.005 155.544 278.082 155.723 278.621 156.083C279.339 156.443 279.878 156.802 280.416 157.342C281.493 158.421 282.391 159.68 282.93 160.939C284.007 163.816 284.186 166.873 284.007 169.751C283.468 175.506 283.289 180.901 284.007 186.476C284.725 192.051 285.981 197.446 287.418 203.021C288.854 208.416 290.829 213.811 292.265 219.386C289.751 214.351 287.418 209.135 285.443 203.56C283.468 198.165 282.032 192.59 281.314 186.835C280.596 181.081 280.955 174.966 282.032 169.571C282.391 166.873 282.57 163.996 281.852 161.478C281.493 160.219 280.955 158.96 280.057 157.881C279.698 157.342 279.16 156.802 278.621 156.443C277.903 156.083 277.185 155.723 276.646 156.263Z" fill="#394C6F"/>
<path d="M266.234 201.402C270.004 206.078 271.979 212.193 272.338 218.127C272.517 221.185 272.158 224.242 271.799 227.119C271.44 229.997 271.26 232.874 271.799 235.752C270.183 233.234 269.824 229.997 269.824 226.94C269.824 223.882 270.004 221.005 269.824 218.307C269.286 212.552 268.029 207.157 266.234 201.402Z" fill="#394C6F"/>
<path d="M192.629 97.6355C194.783 98.8944 195.86 101.412 196.579 103.75C197.297 106.088 197.656 108.426 198.015 110.764C198.374 115.44 198.374 120.295 196.938 124.971C196.22 120.115 195.86 115.619 195.322 110.944C195.142 108.606 194.783 106.448 194.604 104.11C194.245 101.952 194.065 99.6137 192.629 97.6355Z" fill="#394C6F"/>
<path d="M206.093 100.513C211.479 101.952 216.326 105.908 219.199 110.764C222.25 115.619 223.687 121.554 222.25 127.129C221.353 121.554 219.558 116.698 216.865 112.202C214.172 107.706 210.581 103.75 206.093 100.513Z" fill="#394C6F"/>
<path d="M164.982 125.51C163.367 120.115 164.264 114.001 166.778 108.965C169.47 103.75 173.779 99.4339 179.165 97.6355C174.856 101.232 171.625 105.369 169.291 110.044C166.778 114.72 165.341 119.935 164.982 125.51Z" fill="#394C6F"/>
<path d="M1225.35 558.712L1170.95 325.109C1170.27 321.379 1170.95 319.684 1175.49 318.667C1186.11 316.293 1208.84 306.291 1219.28 309.173C1228.55 311.716 1227.71 320.362 1229.39 328.838C1240.67 383.425 1240.84 557.526 1240.84 557.526C1240.84 557.526 1252.97 604.484 1248.25 624.149C1246.57 630.93 1242.53 636.863 1238.48 642.627C1234.78 647.882 1230.06 653.646 1223.83 653.307C1215.75 636.524 1233.43 612.96 1226.02 595.838C1225.68 603.467 1221.81 613.469 1214.74 616.011C1212.55 590.922 1225.35 558.712 1225.35 558.712Z" fill="#FFA18A"/>
<path d="M958.568 563.968L1010.95 329.347C1012.29 320.701 969.684 312.394 963.284 314.089C954.021 316.632 954.863 325.278 953.179 333.754C943.242 382.747 943.747 563.459 943.747 563.459C943.747 563.459 941.895 572.105 941.221 574.139C937.011 587.531 936 601.263 936 615.164C936 619.741 936 624.318 937.011 628.726C938.695 635.507 942.737 641.44 946.779 647.204C950.484 652.459 955.2 658.223 961.432 657.884C969.516 640.931 951.663 617.537 959.074 600.415C959.411 608.044 963.284 618.046 970.526 620.419C975.242 597.703 958.568 563.968 958.568 563.968Z" fill="#FFA18A"/>
<path d="M1168.59 129.309C1168.08 155.415 1162.53 180.674 1153.6 205.933C1148.38 220.512 1143.83 219.495 1133.56 216.613C1114.53 211.189 1099.37 183.726 1069.89 191.185C1052.72 195.423 1032.67 188.133 1037.05 170.842C1037.73 168.13 1016 136.937 1035.87 98.4552C1059.62 52.8533 1074.78 45.3943 1085.56 43.36C1103.75 39.9695 1120.08 37.2571 1135.92 48.4457C1165.39 69.4667 1169.09 106.084 1168.59 129.309Z" fill="#875549"/>
<path d="M1050.69 221.53C1046.15 224.242 1046.82 239.669 1046.65 245.093C1046.48 250.857 1051.03 255.773 1056.25 257.808C1061.47 259.842 1067.37 259.503 1073.09 259.164C1088.93 257.808 1104.59 255.604 1120.08 252.213C1127.16 250.688 1138.95 248.823 1146.02 250.518C1133.05 240.008 1136.25 230.514 1126.82 218.648C1115.03 204.069 1114.19 182.2 1121.09 167.96C1086.57 175.25 1056.76 149.651 1062.15 177.114C1066.36 198.135 1069.89 209.832 1050.69 221.53Z" fill="#FF7E64"/>
<path d="M1138.95 125.41C1138.95 168.13 1117.56 202.712 1091.28 202.712C1065.01 202.712 1043.62 168.13 1043.62 125.41C1043.62 82.6895 1065.01 48.1067 1091.28 48.1067C1117.73 48.1067 1138.95 82.6895 1138.95 125.41Z" fill="#FFA18A"/>
<path d="M949.305 345.96C966.653 348.333 981.474 346.977 998.653 343.926C999.832 343.756 1000.67 342.57 1000.67 341.552C998.821 264.589 984.505 254.078 984.505 254.078C984.505 254.078 952.168 274.76 947.453 343.417C947.116 344.604 948.126 345.79 949.305 345.96Z" fill="#595166"/>
<path d="M1234.44 339.518C1217.09 341.891 1202.27 340.535 1185.09 337.484C1183.92 337.314 1183.07 336.128 1183.07 335.11C1184.93 258.147 1199.24 247.636 1199.24 247.636C1199.24 247.636 1231.58 268.318 1236.29 336.975C1236.63 338.162 1235.62 339.349 1234.44 339.518Z" fill="#595166"/>
<path d="M984.337 253.909C988.547 248.484 1050.36 221.869 1050.36 221.869C1050.36 221.869 1074.44 237.634 1092.46 236.448C1110.99 235.091 1127.49 218.139 1128.84 218.817C1157.98 231.362 1170.44 235.43 1199.58 247.975C1184.25 330.872 1186.95 361.387 1163.03 437.333C1106.27 443.775 1073.77 439.029 1016.34 436.825C1005.39 390.036 985.684 280.693 984.337 253.909Z" fill="#3B3348"/>
<path d="M1163.03 437.164L1250.61 707.893C1253.98 718.573 1246.23 729.423 1235.12 729.423L965.811 730.779C955.2 730.779 947.284 720.777 949.811 710.436L1016.34 436.655L1163.03 437.164Z" fill="#AB5855"/>
<path d="M1237.14 317.65C1233.6 312.055 1228.21 309.004 1222.48 307.648C1219.62 306.8 1216.59 306.461 1213.73 306.461H1211.54H1209.01C1207.33 306.461 1205.64 306.461 1203.96 306.291C1190.65 305.274 1177.52 301.206 1166.23 293.747C1160.67 290.017 1155.45 285.101 1152.08 279.168C1150.4 275.947 1149.22 273.065 1148.04 269.844C1146.86 266.792 1145.68 263.741 1144.67 260.52C1142.48 254.248 1140.8 247.975 1139.45 241.533C1138.78 238.312 1138.27 235.091 1138.11 231.701C1137.94 228.48 1137.94 224.92 1139.62 222.038C1138.44 225.09 1138.61 228.48 1138.95 231.701C1139.28 234.922 1139.96 238.143 1140.63 241.194C1142.15 247.467 1144.17 253.739 1146.53 259.842C1148.88 265.945 1151.07 272.048 1154.11 277.642C1157.47 283.067 1162.36 287.644 1167.75 291.204C1178.53 298.324 1191.33 302.053 1204.13 302.901C1207.33 303.24 1210.53 303.07 1213.73 303.24C1216.93 303.41 1220.29 303.918 1223.33 304.935C1226.36 305.952 1229.39 307.478 1231.92 309.682C1234.44 311.886 1236.29 314.598 1237.47 317.65H1237.14Z" fill="#595166"/>
<path d="M1016.34 436.486C1022.4 435.808 1028.63 435.638 1034.69 435.13L1053.05 434.451C1065.35 434.112 1077.47 434.112 1089.77 433.943C1102.06 434.282 1114.19 434.282 1126.48 434.79L1144.84 435.638C1150.91 436.147 1157.14 436.486 1163.2 437.164C1163.2 437.503 1089.77 437.333 1089.77 437.333L1016.34 436.825V436.486Z" fill="#595166"/>
<path d="M1126.48 121.85C1135.92 124.731 1145.85 124.562 1155.79 124.223C1138.95 107.44 1140.8 79.8076 1129.68 59.4648C1119.41 40.6476 1102.06 37.4267 1097.01 40.6476C1087.75 46.7505 1082.69 108.627 1126.48 121.85Z" fill="#875549"/>
<path d="M1054.91 116.594C1045.14 117.95 1035.37 116.255 1025.6 114.39C1044.97 100.32 1047.33 72.8571 1061.31 54.5486C1074.27 37.4267 1091.96 36.9181 1096.51 40.9867C1104.76 48.4457 1100.04 110.491 1054.91 116.594Z" fill="#875549"/>
<path d="M1152.08 275.438C1172.13 309.512 1201.6 302.053 1215.92 303.918C1224.84 305.105 1234.44 309.512 1237.47 318.158C1241.85 250.179 1243.37 257.469 1171.28 217.8C1158.82 211.019 1138.44 212.545 1137.77 230.853C1137.6 236.787 1140.63 242.89 1142.15 248.653C1144.84 257.808 1147.2 266.962 1152.08 275.438Z" fill="#875549"/>
<path d="M1145.52 222.547C1147.37 226.446 1149.22 230.006 1151.41 233.396C1153.6 236.787 1155.79 240.008 1158.48 243.059C1161.01 246.11 1163.71 248.992 1166.57 252.044C1169.43 255.095 1172.29 257.977 1174.99 261.368C1167.92 256.96 1161.35 251.705 1155.96 245.263C1150.74 238.821 1146.69 231.023 1145.35 222.716L1145.52 222.547Z" fill="#6B3B30"/>
<path d="M1151.75 219.495C1156.97 219.495 1162.02 220.004 1166.91 220.851C1171.96 221.699 1177.35 223.055 1181.89 226.107C1186.44 229.158 1190.15 233.227 1193.01 237.634C1194.36 239.838 1195.71 242.211 1196.88 244.415C1197.89 246.789 1198.91 249.162 1199.75 251.705C1196.88 247.636 1194.19 243.229 1190.99 239.329C1187.96 235.43 1184.42 231.701 1180.21 228.989C1176 226.107 1171.28 224.581 1166.4 223.394L1151.75 219.834V219.495Z" fill="#6B3B30"/>
<path d="M1150.4 223.394C1152.76 224.411 1154.78 225.598 1156.63 226.954C1158.48 228.31 1160.17 229.836 1161.85 231.362C1163.54 232.888 1165.05 234.583 1166.57 236.278C1168.08 238.143 1169.43 240.008 1170.61 242.211C1166.74 239.838 1163.03 236.787 1159.66 233.735C1156.29 230.514 1153.09 227.124 1150.23 223.564L1150.4 223.394Z" fill="#6B3B30"/>
<path d="M1227.03 293.747C1226.02 290.526 1225.52 287.305 1224.84 284.253C1224.17 281.202 1223.49 278.32 1222.48 275.608C1221.47 272.895 1220.13 270.352 1218.61 267.979C1216.93 265.606 1214.91 263.402 1212.21 261.198C1218.61 262.724 1223.33 268.318 1225.52 274.421C1227.71 280.693 1227.71 287.305 1227.37 293.747H1227.03Z" fill="#6B3B30"/>
<path d="M1144.51 207.798L1145.18 200.678C1145.35 198.474 1145.52 196.27 1145.52 194.067L1145.85 187.286C1146.02 184.912 1146.19 182.539 1146.86 179.996C1148.38 184.573 1149.05 189.32 1148.88 194.067C1148.55 198.813 1147.37 203.73 1144.84 207.629L1144.51 207.798Z" fill="#6B3B30"/>
<path d="M1123.12 201.187C1124.97 201.865 1126.32 202.034 1127.83 202.373C1129.35 202.712 1130.86 203.39 1132.21 204.069C1133.56 204.747 1134.91 205.594 1136.08 206.611C1137.26 207.629 1138.61 208.815 1139.62 210.51C1136.42 209.663 1133.56 208.476 1130.69 207.12C1129.35 206.442 1127.83 205.594 1126.48 204.747C1125.14 203.899 1123.79 202.882 1122.95 201.356L1123.12 201.187Z" fill="#6B3B30"/>
<path d="M1093.47 85.0629C1094.48 81.1638 1095.33 77.6038 1096 74.0438C1096.51 70.4838 1097.01 66.9238 1097.01 63.3638C1097.18 59.8038 1097.18 56.2438 1097.01 52.5143C1096.84 48.7848 1096.51 45.0552 1096.34 41.1562C1099.2 48.2762 1100.55 55.9048 1100.38 63.5333C1100.04 71.1619 1097.85 78.7905 1093.81 85.2324L1093.47 85.0629Z" fill="#6B3B30"/>
<path d="M1108.29 40.6487C1112.34 42.0049 1116.04 44.0392 1119.58 46.243C1123.12 48.7858 1126.32 51.6677 1129.18 54.7192C1132.04 57.9401 1134.4 61.5001 1136.76 65.2296C1138.95 68.9592 1140.97 72.6887 1142.32 76.7573C1143.83 80.8258 1144.84 84.8944 1145.68 89.1325C1146.19 91.1668 1146.36 93.3706 1146.36 95.5744V98.6258C1146.36 99.4734 1146.53 100.491 1146.69 101.508C1148.21 109.306 1151.24 117.104 1155.62 124.054C1150.23 117.782 1146.53 110.153 1144.51 102.016C1144 99.982 1143.83 97.9477 1143.66 95.7439C1143.66 93.8792 1143.33 91.8449 1142.82 89.8106C1141.98 85.742 1140.8 81.843 1139.28 77.9439C1136.25 70.3153 1132.38 62.8563 1127.16 56.5839C1121.94 50.142 1115.54 44.7173 1108.29 40.9877V40.6487Z" fill="#6B3B30"/>
<path d="M1043.79 118.968C1042.27 119.985 1040.93 120.324 1039.75 120.324C1038.4 120.493 1037.22 120.324 1036.04 120.154C1034.86 119.815 1033.68 119.307 1032.51 118.629C1031.49 117.95 1030.48 117.103 1029.64 115.577C1029.64 115.238 1036.88 116.764 1036.88 116.764L1043.79 118.629V118.968Z" fill="#6B3B30"/>
<path d="M1155.79 124.392C1154.44 125.579 1152.93 126.257 1151.58 126.596C1150.23 127.105 1148.72 127.105 1147.37 127.105C1146.02 127.105 1144.51 126.935 1143.16 126.427C1141.81 125.918 1140.46 125.41 1138.95 124.053C1138.95 123.714 1147.37 123.714 1147.37 123.714L1155.79 124.053V124.392Z" fill="#6B3B30"/>
<path d="M1150.4 69.2971C1153.6 71.1619 1155.96 74.2133 1157.81 77.4343C1159.66 80.6552 1160.84 84.0457 1161.68 87.6057C1162.36 91.1657 1162.86 94.7257 1162.86 98.2857C1162.86 101.846 1162.53 105.406 1161.52 108.966C1160.84 102.015 1160.17 95.2343 1158.48 88.4533C1156.97 81.8419 1154.78 75.0609 1150.4 69.6362V69.2971Z" fill="#6B3B30"/>
<path d="M1159.16 143.718C1159.66 144.905 1160.67 145.074 1161.68 146.6C1162.19 147.278 1162.36 148.804 1161.68 149.99C1161.18 151.177 1160.17 151.686 1159.49 152.194C1157.81 153.042 1156.8 153.211 1156.8 153.55C1156.63 153.72 1156.29 154.229 1156.13 155.076C1155.62 156.432 1155.79 159.653 1153.77 162.535C1151.75 165.248 1149.56 165.756 1147.87 167.621C1148.21 165.078 1150.4 163.383 1151.41 161.179C1152.59 158.975 1152.08 156.432 1152.76 154.059C1153.09 152.872 1153.77 151.686 1154.78 150.838C1155.96 149.99 1157.31 149.99 1158.32 149.651C1159.49 149.312 1160.34 148.295 1159.83 147.109C1159.49 146.091 1158.48 145.074 1158.65 143.549L1159.16 143.718Z" fill="#6B3B30"/>
<path d="M1037.05 170.503C1037.05 168.638 1037.05 166.943 1037.39 165.248C1037.56 163.552 1037.89 161.857 1038.23 160.162C1038.74 158.467 1039.24 156.771 1040.08 155.076C1040.59 154.229 1041.09 153.381 1041.77 152.703C1042.61 152.025 1043.45 151.347 1044.63 151.516C1043.12 152.533 1042.44 154.229 1041.94 155.924C1041.43 157.619 1041.09 159.145 1040.59 160.84C1039.75 164.23 1038.91 167.621 1037.22 170.672L1037.05 170.503Z" fill="#6B3B30"/>
<path d="M1051.54 183.387C1053.22 183.726 1054.57 184.065 1055.75 184.573C1056.93 185.082 1057.94 185.59 1058.95 186.269C1059.96 186.947 1060.8 187.455 1061.64 188.303C1062.48 188.981 1063.33 189.998 1064.67 191.015C1061.98 191.524 1059.45 190.507 1057.09 189.15C1054.91 187.625 1052.88 185.76 1051.2 183.556L1051.54 183.387Z" fill="#6B3B30"/>
<path d="M1032.67 127.783C1033.85 129.309 1034.36 130.665 1034.86 132.021C1035.37 133.377 1035.71 134.733 1036.04 135.92C1036.21 137.276 1036.38 138.632 1036.38 140.158C1036.38 141.514 1036.21 143.04 1035.71 144.905C1034.19 142.362 1033.18 139.48 1032.67 136.598C1032.17 133.716 1032.17 130.665 1032.34 127.783H1032.67Z" fill="#6B3B30"/>
<path d="M1089.09 40.8171C1086.4 42.3429 1083.87 43.5295 1081.35 45.0552C1078.99 46.4114 1076.63 47.7676 1074.27 49.4629C1072.08 50.819 1069.89 52.5143 1067.71 54.2095C1065.68 56.0743 1063.66 57.939 1061.81 60.4819C1062.15 57.4305 1063.83 54.7181 1065.85 52.5143C1067.87 50.3105 1070.06 48.2762 1072.59 46.581C1077.64 43.36 1083.2 40.9867 1089.26 40.4781L1089.09 40.8171Z" fill="#6B3B30"/>
<path d="M1055.24 112.526L1060.63 110.322C1062.15 109.644 1063.66 108.966 1065.18 108.288C1066.69 107.61 1068.04 106.762 1069.73 105.914L1074.78 103.032C1073.26 106.592 1070.23 109.474 1066.69 111.339C1063.16 113.034 1059.12 113.543 1055.24 112.865V112.526Z" fill="#6B3B30"/>
<path d="M1154.95 217.63L1142.32 224.411C1140.29 225.429 1137.77 224.75 1136.76 222.716L1135.58 220.512C1134.57 218.478 1135.24 215.935 1137.26 214.918L1149.89 208.137C1151.92 207.12 1154.44 207.798 1155.45 209.832L1156.63 212.036C1157.81 213.901 1156.97 216.444 1154.95 217.63Z" fill="#AB5855"/>
<path d="M1085.39 440.046C1084.04 439.537 1082.69 439.198 1081.68 439.707C1080.84 440.046 1080.17 441.063 1080 442.08C1079.66 443.097 1079.83 444.284 1080.34 445.131C1080.67 446.149 1081.35 446.996 1082.53 447.674C1083.03 448.013 1083.71 448.183 1084.38 448.352C1085.05 448.522 1085.56 448.522 1086.23 448.352C1087.58 448.013 1088.59 446.996 1089.09 445.81C1090.27 443.436 1090.27 440.893 1088.76 439.029L1091.62 437.333C1093.31 440.385 1092.8 444.623 1090.44 446.996C1089.26 448.183 1087.92 448.861 1086.4 449.539C1085.73 449.709 1084.72 449.878 1084.04 449.878C1083.2 449.878 1082.53 449.878 1081.68 449.539C1080.17 449.2 1078.32 448.183 1077.47 446.488C1076.63 444.792 1076.63 442.928 1077.14 441.063C1077.64 439.368 1079.16 437.672 1081.18 437.503C1083.2 437.333 1084.55 438.52 1085.56 439.707L1085.39 440.046Z" fill="#382823"/>
<path d="M1132.21 463.101C1131.71 461.914 1130.86 460.897 1130.02 460.389C1129.18 460.05 1128.17 460.219 1127.33 460.558C1125.64 461.575 1124.63 463.44 1124.8 465.474C1124.97 467.509 1126.48 470.221 1128.84 470.39C1131.2 470.73 1133.73 469.373 1134.74 467.339C1135.24 466.322 1135.41 465.305 1135.58 464.118C1135.75 462.931 1135.75 461.745 1135.41 460.728C1134.91 458.524 1133.73 457.168 1131.71 456.32C1127.83 454.964 1122.11 456.32 1119.75 460.897C1119.58 458.015 1121.6 455.472 1124.13 453.947C1126.65 452.59 1129.85 451.912 1132.88 452.93C1134.4 453.438 1135.92 454.455 1136.93 455.642C1137.94 456.998 1138.44 458.524 1138.61 460.05C1138.78 461.575 1138.78 463.101 1138.44 464.457C1138.11 465.813 1137.43 467.339 1136.42 468.526C1134.4 470.899 1131.37 471.577 1128.67 471.238C1127.33 471.069 1125.81 470.56 1124.8 469.543C1123.79 468.695 1122.78 467.509 1122.27 465.983C1121.77 464.457 1121.94 462.592 1122.78 461.236C1123.62 459.88 1124.8 458.693 1126.48 458.015C1128 457.337 1130.02 457.676 1131.2 458.863C1132.38 460.05 1132.72 461.575 1132.72 462.931L1132.21 463.101Z" fill="#382823"/>
<path d="M1043.45 462.423C1042.95 461.236 1042.11 460.219 1041.26 459.71C1040.42 459.371 1039.41 459.541 1038.57 459.88C1036.88 460.897 1035.87 462.762 1036.04 464.796C1036.21 466.83 1037.73 469.543 1040.08 469.712C1042.44 470.051 1044.97 468.695 1045.98 466.661C1046.48 465.644 1046.65 464.627 1046.82 463.44C1046.99 462.253 1046.99 461.067 1046.65 460.049C1046.15 457.846 1044.97 456.489 1042.95 455.642C1039.07 454.286 1033.35 455.642 1030.99 460.219C1030.82 457.337 1032.84 454.794 1035.37 453.269C1037.89 451.912 1041.09 451.234 1044.13 452.251C1045.64 452.76 1047.16 453.777 1048.17 454.964C1049.18 456.32 1049.68 457.846 1049.85 459.371C1050.02 460.897 1050.02 462.423 1049.68 463.779C1049.35 465.135 1048.67 466.661 1047.66 467.848C1045.64 470.221 1042.61 470.899 1039.92 470.56C1038.57 470.39 1037.05 469.882 1036.04 468.865C1035.03 468.017 1034.02 466.83 1033.52 465.305C1033.01 463.779 1033.18 461.914 1034.02 460.558C1034.86 459.202 1036.04 458.015 1037.73 457.337C1039.24 456.659 1041.26 456.998 1042.44 458.185C1043.45 459.371 1043.79 461.067 1043.79 462.423H1043.45Z" fill="#382823"/>
<path d="M904.155 221.142C898.669 224.397 899.482 242.91 899.279 249.421C899.075 256.338 904.561 262.238 910.86 264.679C917.159 267.12 924.27 266.713 931.178 266.306C950.277 264.679 969.173 262.034 987.866 257.965C996.4 256.134 1010.62 253.896 1019.16 255.931C1003.51 243.317 1007.37 231.925 995.993 217.684C981.77 200.188 980.755 173.943 989.085 156.854C947.433 165.602 911.47 134.882 917.971 167.84C923.051 193.27 927.318 207.308 904.155 221.142Z" fill="#FF7E64"/>
<path d="M1010.62 105.79C1010.62 157.058 984.818 198.56 953.122 198.56C921.425 198.56 895.621 157.058 895.621 105.79C895.621 54.5226 921.425 13.0203 953.122 13.0203C984.818 13.2238 1010.62 54.7261 1010.62 105.79Z" fill="#FFA18A"/>
<path d="M812.114 1164.71C838.121 1167.76 839.746 1166.54 865.347 1169.39C867.989 1169.59 870.427 1167.96 871.036 1165.32C896.028 1056.07 960.64 635.758 961.655 623.552C963.687 594.663 963.687 565.164 957.592 536.682C944.182 475.649 856.001 515.931 851.125 539.326C847.67 555.398 847.061 565.164 844.013 580.015C838.527 605.852 827.555 631.079 826.133 657.527C818.615 800.547 809.879 1083.13 807.847 1160.03C807.44 1162.67 809.675 1164.3 812.114 1164.71Z" fill="#495B7D"/>
<path d="M1084.38 1166.74C1058.37 1166.95 1055.93 1167.15 1030.33 1165.93C1028.1 1165.73 1026.06 1164.1 1025.45 1161.86C1000.67 1053.43 936.461 620.703 935.648 608.497C933.616 579.405 931.788 549.702 939.712 521.627C957.795 458.967 1047.4 512.269 1054.1 539.733C1056.54 549.499 1071.17 640.234 1071.17 642.472C1076.05 809.295 1086.41 1088.42 1089.25 1162.27C1089.46 1164.91 1086.82 1166.74 1084.38 1166.74Z" fill="#495B7D"/>
<path d="M849.905 459.78C843.81 533.427 806.221 602.19 782.043 671.971C781.433 673.395 780.011 674.412 778.385 674.209C761.318 672.378 761.521 671.971 745.267 665.461C743.845 664.851 742.829 663.223 743.235 661.799C748.518 629.045 799.923 311.674 824.101 260.203C839.746 302.316 856.001 384.913 849.905 459.78Z" fill="#FF2055"/>
<path d="M1058.37 453.27C1064.47 526.916 1101.04 595.477 1125.22 665.257C1125.83 666.682 1127.25 667.699 1128.87 667.495C1146.35 665.664 1147.36 665.461 1163.82 658.951C1165.24 658.34 1166.26 656.713 1165.85 655.085C1160.37 622.331 1106.32 305.774 1082.14 254.303C1066.5 296.416 1052.27 378.2 1058.37 453.27Z" fill="#FF2055"/>
<path d="M824.101 260.203C829.181 253.693 903.749 221.752 903.749 221.752C903.749 221.752 932.804 240.673 954.544 239.249C976.894 237.621 996.806 217.277 998.431 218.091C1033.58 233.145 1046.99 239.452 1081.94 254.507C1063.45 353.99 1073.41 433.333 1044.35 524.475C975.878 532.206 931.178 527.73 861.893 525.085C848.89 468.935 825.727 292.347 824.101 260.203Z" fill="#FF2055"/>
<path d="M995.384 33.7715C999.041 27.0579 1008.18 38.4507 1010.42 42.9264C1029.31 79.1392 1012.45 111.69 1012.45 111.69C1011.84 113.318 1011.03 114.742 1010.42 116.573C1007.57 110.266 1007.17 104.163 1008.39 97.449C1010.22 87.4803 1006.96 73.4428 1004.12 63.881C1002.7 58.7949 992.336 39.2644 995.384 33.7715Z" fill="#222C44"/>
<path d="M936.055 17.4961C928.537 6.71361 908.422 24.82 903.139 31.7371C861.08 88.9044 896.637 140.782 896.637 140.986C898.06 143.427 899.279 145.868 900.904 148.513C907.203 138.748 912.079 126.134 912.485 115.352C913.298 98.8731 919.597 82.3943 926.099 67.3395C929.553 59.4052 942.15 26.2441 936.055 17.4961Z" fill="#222C44"/>
<path d="M1016.11 40.0782C1018.55 25.4303 1007.98 -8.54459 998.635 2.03443C981.161 21.9718 946.417 1.22066 928.13 16.6823C918.378 24.82 919.8 33.568 931.178 43.5367C952.512 62.05 1010.22 76.0875 1016.11 40.0782Z" fill="#222C44"/>
<path d="M1008.79 63.4741C1009.4 63.0672 1010.22 63.4741 1010.42 63.881C1010.83 64.2879 1011.03 64.6948 1011.23 65.3051C1011.44 65.712 1011.44 66.5257 1011.44 67.1361C1011.44 67.7464 1011.23 68.1533 1011.23 68.5602C1011.03 69.3739 1011.03 69.7808 1011.23 69.7808C1011.23 69.7808 1011.43 70.1877 1011.84 70.5946C1012.04 71.2049 1012.45 71.6118 1012.86 72.2221C1013.26 72.8325 1013.87 73.6462 1014.08 74.46C1014.89 76.0875 1015.09 77.9185 1014.69 79.7495C1013.87 78.5289 1013.06 77.1048 1012.04 75.8841C1011.23 74.6634 1010.01 73.4428 1009.2 72.2221C1008.79 71.6118 1008.39 70.798 1008.39 69.7808C1008.39 68.967 1008.79 68.1533 1009.2 67.3395C1009.61 66.7292 1009.81 65.9154 1009.81 65.3051C1009.81 64.6948 1009.61 63.6775 1008.79 63.6775V63.4741Z" fill="#445675"/>
<path d="M1012.25 102.128C1011.64 100.501 1011.44 98.8731 1011.03 97.6525C1010.83 97.0421 1010.83 96.4318 1010.62 96.2284C1010.42 95.8215 1010.22 95.618 1009.81 94.8043C1009.4 94.1939 1009 93.1767 1008.79 92.1595C1008.59 91.1423 1008.59 90.1251 1008.79 89.3113C1009 87.4803 1010.01 86.0562 1011.23 84.6321C1011.23 87.6838 1010.83 90.7354 1012.45 93.3802C1013.26 94.6008 1013.67 96.4318 1013.47 97.8559C1013.26 99.4834 1012.86 100.908 1012.45 102.332L1012.25 102.128Z" fill="#445675"/>
<path d="M907.812 79.5461C905.78 77.7151 905.577 75.4772 906.39 73.4428C907.203 71.6118 908.828 69.7808 911.47 69.7808C910.657 71.4084 909.641 73.0359 909.235 74.6634C908.625 76.0875 908.219 77.9185 908.219 79.5461H907.812Z" fill="#445675"/>
<path d="M927.115 25.2269C923.66 26.2441 920.816 28.0751 918.784 30.9233C916.752 33.568 915.736 36.4162 915.94 39.6713C915.94 42.9264 916.143 46.7918 914.72 50.8607C913.095 54.9295 910.25 57.5743 908.015 60.219C903.545 65.3051 900.295 71.2049 898.06 77.7151C896.84 80.9702 896.028 84.2253 895.621 87.6838C895.012 91.1423 895.012 94.6008 895.012 98.2628C892.37 84.2253 896.434 69.1705 905.78 58.388C908.015 55.7433 910.657 53.0985 912.079 50.0469C913.501 46.7918 913.298 43.1298 913.501 39.6713C913.705 32.1439 919.8 25.6338 927.115 25.0234V25.2269Z" fill="#445675"/>
<path d="M927.318 38.0438C926.099 38.6541 926.302 39.8748 926.911 40.6885C927.115 41.0954 927.318 41.2989 927.724 41.7057L928.943 42.723C929.959 43.5367 931.381 44.7574 931.991 47.1987C932.397 49.64 931.381 51.471 930.772 52.6916C929.959 54.1157 928.943 55.3364 927.927 56.3536L925.286 58.9984C923.457 60.8293 921.629 62.6603 919.8 64.8982C920.41 62.2534 921.629 59.8121 923.254 57.5743C924.88 55.3364 926.708 53.5054 928.13 51.2675C928.74 50.0469 929.35 48.8262 929.146 47.6056C928.943 46.3849 927.927 45.3677 927.115 44.3505C926.302 43.3333 925.286 42.3161 925.083 40.892C924.88 39.6713 925.489 37.6369 927.115 37.6369L927.318 38.0438Z" fill="#445675"/>
<path d="M903.139 116.573C901.514 114.538 899.888 112.504 899.482 109.656C899.075 108.231 899.075 106.604 899.482 104.976C899.888 103.349 900.904 102.128 901.717 101.111C903.139 99.28 903.952 98.0594 904.358 95.8215C904.968 93.7871 905.171 91.3458 905.78 88.701C906.593 91.1423 907 93.5836 906.796 96.0249C906.796 98.4662 905.577 100.908 904.155 102.942C902.53 104.773 901.514 107.011 901.92 109.452C901.92 111.893 902.733 114.131 903.545 116.369L903.139 116.573Z" fill="#445675"/>
<path d="M985.428 54.5226C988.069 55.5398 990.507 55.5398 992.742 55.3364C994.977 55.1329 997.212 54.5226 999.041 53.5054C1003.1 51.471 1006.15 48.0125 1009.4 43.5367C1008.39 48.8262 1005.34 53.7088 1000.26 56.3536C995.384 58.7949 989.085 58.5915 985.021 54.9295L985.428 54.5226Z" fill="#445675"/>
<path d="M1008.39 18.3098C1006.96 15.0548 1006.36 13.0203 1005.34 10.7825L1002.49 3.25508C1005.14 4.67918 1006.96 7.12049 1008.18 9.76525C1009.2 12.6134 1009.4 15.6651 1008.59 18.5133L1008.39 18.3098Z" fill="#445675"/>
<path d="M942.353 16.072C940.728 16.2754 939.509 16.8857 938.29 17.6995C936.867 18.3098 935.648 18.9202 934.632 19.7339C933.413 20.5477 932.194 21.3615 931.381 22.1752C930.975 22.5821 930.569 22.989 930.772 22.5821C930.772 23.1925 930.772 23.5993 930.569 24.2097C930.569 26.651 930.975 29.2957 932.194 31.5336C933.413 33.7715 935.242 35.8059 937.883 37.4334C934.835 37.0266 931.991 35.399 930.162 32.7543C928.334 30.313 927.521 27.2613 927.521 24.0062C927.521 23.1925 927.724 22.3787 927.927 21.7684C928.334 20.9546 928.943 20.3443 929.553 19.9374C930.772 18.9202 932.194 18.3098 933.616 17.6995C936.461 16.4789 939.305 15.2582 942.556 15.8685L942.353 16.072Z" fill="#445675"/>
<path d="M955.763 18.9202C959.42 19.9374 962.671 20.7511 965.922 21.158C969.173 21.5649 972.221 21.3615 975.675 20.9546C979.129 20.5477 982.583 20.3443 985.834 19.9374C989.085 19.327 992.133 18.5133 994.977 16.072C993.352 19.327 989.898 21.3615 986.647 22.1752C983.193 23.1925 979.739 23.5993 976.081 24.0062C972.627 24.4131 968.97 24.4131 965.516 23.5993C962.062 22.7856 958.811 20.9546 955.763 19.1236V18.9202Z" fill="#445675"/>
<path d="M950.887 39.4679C952.512 41.5023 953.935 43.3333 955.56 44.7574C957.185 46.1815 958.608 47.4021 960.436 48.4193C964.094 50.6572 968.767 52.4882 972.221 56.5571C967.751 54.7261 963.078 53.5054 958.811 51.0641C956.779 49.8434 954.95 48.2159 953.528 46.1815C952.106 44.1471 951.293 41.9092 950.684 39.6713L950.887 39.4679Z" fill="#445675"/>
<path d="M1003.51 27.0579C1004.73 29.7026 1004.32 33.1612 1002.29 35.8059C1000.26 38.4507 997.009 39.8748 993.961 40.2816C990.914 40.6885 988.272 40.2816 985.631 39.8748C982.99 39.4679 980.551 38.8575 977.91 38.4507C982.99 36.6197 988.475 38.0438 993.758 37.23C996.4 37.0266 998.838 36.0093 1000.67 34.1784C1002.5 32.3474 1003.51 29.7026 1003.31 27.0579H1003.51Z" fill="#445675"/>
</svg>
